<?xml version="1.0" encoding="UTF-8"?>
<svg xmlns="http://www.w3.org/2000/svg" xmlns:xlink="http://www.w3.org/1999/xlink" width="24px" height="24px" viewBox="0 0 24 24" version="1.1">
<g id="surface1">
<path style="fill-rule:nonzero;fill:rgb(100%,100%,100%);fill-opacity:1;stroke-width:0.00512;stroke-linecap:butt;stroke-linejoin:miter;stroke:rgb(100%,100%,100%);stroke-opacity:1;stroke-miterlimit:4;" d="M 510.667068 112.250088 C 508.333733 100.666746 503.250395 90.000071 496.00039 81.250064 C 494.500388 79.333396 492.917054 77.583394 491.167052 75.916726 C 478.417042 63.083383 460.500362 55.083377 441.000346 55.083377 L 71.000056 55.083377 C 51.50004 55.083377 33.666693 63.083383 20.83335 75.916726 C 19.083348 77.583394 17.500014 79.333396 16.000013 81.250064 C 8.750007 90.000071 3.66667 100.666746 1.416668 112.250088 C 0.5 116.750092 0 121.416762 0 126.083432 L 0 385.91697 C 0 395.916978 2.083335 405.500318 5.916671 414.083659 C 9.416674 422.416998 14.500011 429.833671 20.83335 436.083676 C 22.416684 437.750344 24.000019 439.167012 25.666687 440.583679 C 38.00003 450.833687 53.833376 456.917026 71.000056 456.917026 L 441.000346 456.917026 C 458.167027 456.917026 474.083706 450.833687 486.333715 440.583679 C 488.000383 439.167012 489.583718 437.750344 491.167052 436.083676 C 497.500391 429.833671 502.583728 422.416998 506.167064 414.083659 C 509.917067 405.416985 512.000402 395.916978 512.000402 385.91697 L 512.000402 126.083432 C 512.000402 121.416762 511.583735 116.750092 510.667068 112.250088 Z M 46.500037 101.583413 C 52.833375 95.250075 61.333382 91.416738 71.000056 91.416738 L 441.000346 91.416738 C 450.667021 91.416738 459.250361 95.250075 465.500366 101.583413 C 466.5837 102.666747 467.667034 103.916748 468.583701 105.166749 L 274.666882 274.166882 C 269.333545 278.916886 262.750206 281.166887 256.000201 281.166887 C 249.333529 281.166887 242.750191 278.916886 237.33352 274.166882 L 43.500034 105.166749 C 44.333368 103.916748 45.416702 102.666747 46.500037 101.583413 Z M 36.333362 385.91697 L 36.333362 142.750112 L 176.666805 265.166875 L 36.416695 387.416971 C 36.333362 387.000304 36.333362 386.41697 36.333362 385.91697 Z M 441.000346 420.583664 L 71.000056 420.583664 C 64.750051 420.583664 58.83338 418.916996 53.833376 416.08366 L 201.833492 287.083559 L 215.666836 299.083568 C 227.166845 309.166909 241.666856 314.250247 256.000201 314.250247 C 270.416879 314.250247 284.833557 309.166909 296.416899 299.083568 L 310.250244 287.083559 L 458.167027 416.08366 C 453.167023 418.916996 447.250351 420.583664 441.000346 420.583664 Z M 475.66704 385.91697 C 475.66704 386.41697 475.66704 387.000304 475.583707 387.416971 L 335.333597 265.250208 L 475.66704 142.833446 Z M 475.66704 385.91697 " transform="matrix(0.046875,0,0,0.046875,0,0)"/>
</g>
</svg>
