<svg version="1.1" id="Layer_1" xmlns="http://www.w3.org/2000/svg" xmlns:xlink="http://www.w3.org/1999/xlink" x="0px" y="0px"
	 width="100%" viewBox="0 0 1920 1080" enable-background="new 0 0 1920 1080" xml:space="preserve">
<path fill="#FFFFFF" opacity="1.000000" stroke="none" 
	d="
M1084.000000,1081.000000 
	C722.666748,1081.000000 361.833466,1081.000000 1.000145,1081.000000 
	C1.000097,721.000122 1.000097,361.000244 1.000048,1.000290 
	C640.999756,1.000193 1280.999512,1.000193 1920.999512,1.000097 
	C1920.999634,360.999664 1920.999634,720.999329 1920.999756,1080.999512 
	C1642.166626,1081.000000 1363.333374,1081.000000 1084.000000,1081.000000 
M1221.934814,647.087830 
	C1217.494263,647.087830 1213.053711,647.087830 1208.070190,647.087830 
	C1208.070190,639.280518 1208.070190,632.198181 1208.070190,624.806641 
	C1204.777588,624.806641 1202.044067,624.806641 1198.779907,624.806641 
	C1198.779907,632.342712 1198.779907,639.426331 1198.779907,647.000366 
	C1194.010498,647.000366 1189.754517,647.000366 1185.297852,647.000366 
	C1185.297852,649.903076 1185.297852,652.296814 1185.297852,655.232910 
	C1189.827881,655.232910 1194.079712,655.232910 1199.040771,655.232910 
	C1199.040771,673.778870 1199.040771,691.794861 1199.040771,709.720337 
	C1202.384155,709.720337 1204.990356,709.720337 1208.195190,709.720337 
	C1208.195190,691.729004 1208.195190,674.009094 1208.195190,656.729614 
	C1213.505737,655.998840 1218.165039,655.357727 1223.225342,655.281738 
	C1226.091187,653.823486 1227.011841,649.917603 1224.975830,647.246826 
	C1224.716919,646.907043 1223.568237,647.245361 1221.934814,647.087830 
M1176.450439,709.859192 
	C1177.296753,708.031921 1178.858643,706.212219 1178.878174,704.376160 
	C1179.065063,686.814575 1179.074341,669.249207 1178.846558,651.688660 
	C1178.826538,650.152405 1176.758667,648.642700 1174.767944,647.044373 
	C1171.668335,647.044373 1168.568848,647.044373 1165.346558,647.044373 
	C1165.178589,649.946106 1165.049927,652.168823 1164.892822,654.883545 
	C1158.583862,649.926697 1152.912231,645.839111 1144.557861,645.838074 
	C1128.212891,645.835999 1116.143066,655.593201 1112.192017,673.143188 
	C1108.771240,677.562012 1109.070068,680.898865 1113.100098,683.826538 
	C1113.760742,692.570740 1117.884888,699.550232 1124.530518,704.947144 
	C1137.700928,715.642517 1151.174561,712.528015 1164.629639,704.195801 
	C1165.023560,706.740051 1165.242676,708.155457 1165.509521,709.879028 
	C1169.049683,709.879028 1172.345581,709.879028 1176.450439,709.859192 
M966.240784,800.894714 
	C965.750610,800.455688 965.260498,800.016663 964.805847,798.873657 
	C963.528137,797.387756 962.547729,795.241272 960.929138,794.513000 
	C924.061401,777.923584 887.135559,761.462952 850.195923,745.033630 
	C819.033752,731.174011 787.836731,717.392639 756.664368,703.555786 
	C751.446411,701.239502 746.275574,698.816895 741.015747,696.412659 
	C742.966064,692.851074 744.822449,691.355408 748.526245,693.014954 
	C779.191406,706.755493 809.922363,720.349060 840.626709,734.002197 
	C882.884705,752.792908 925.124817,771.624207 967.441101,790.282776 
	C968.943542,790.945251 971.175659,789.952942 973.067688,789.731812 
	C972.083008,788.140564 971.473999,785.803162 970.049316,785.085876 
	C963.516479,781.796936 956.765381,778.938782 950.074463,775.966980 
	C923.769775,764.283813 897.456970,752.618896 871.149414,740.941956 
	C839.366333,726.834717 807.579346,712.736389 775.808167,698.602478 
	C767.174438,694.761597 758.591675,690.806274 749.966736,686.895020 
	C751.917419,682.371338 754.431213,681.305908 758.774414,683.281921 
	C776.038574,691.136841 793.424805,698.723877 810.770203,706.400024 
	C840.284058,719.461182 869.804932,732.506531 899.315918,745.574097 
	C923.805481,756.418152 948.305725,767.238586 972.757141,778.168091 
	C980.544617,781.648987 988.261963,785.305542 995.870911,789.159119 
	C999.603027,791.049316 1003.700012,791.206360 1006.363586,788.868652 
	C1008.454407,787.033691 1009.240967,783.018127 1009.453491,779.892822 
	C1009.811646,774.627380 1009.255188,769.299622 1009.801575,763.860168 
	C1013.344482,759.411438 1012.779724,755.642456 1008.045898,752.073059 
	C1008.217651,746.176514 1008.736267,740.265686 1008.493591,734.386292 
	C1007.868591,719.249451 1006.906555,704.126587 1006.797974,688.860718 
	C1010.345398,684.416809 1009.781250,680.643799 1005.045593,677.072876 
	C1005.107727,670.673157 1005.335083,664.269226 1005.175354,657.875061 
	C1005.064331,653.427124 1004.220825,648.999573 1004.060974,644.550171 
	C1003.782104,636.788940 1003.948914,629.010315 1003.610901,621.252869 
	C1003.265320,613.320618 1002.273438,605.412598 1002.042297,597.480103 
	C1001.733276,586.871460 1002.211731,576.235535 1001.761841,565.636414 
	C1001.077332,549.509277 999.836182,533.406372 998.964355,517.286011 
	C998.833435,514.865601 999.765991,512.386047 999.623596,509.968140 
	C998.852539,496.876923 997.767151,483.803741 997.047729,470.710175 
	C996.454895,459.920715 996.169189,449.113068 995.857971,438.310303 
	C995.759094,434.880615 994.609619,432.297211 991.335938,430.897888 
	C982.824646,427.259796 974.290466,423.673706 965.813293,419.957764 
	C957.974792,416.521759 950.287354,412.727234 942.373657,409.479919 
	C930.443054,404.584290 918.320801,400.156342 906.381775,395.280243 
	C898.653381,392.123871 891.182495,388.338013 883.458984,385.168549 
	C874.269958,381.397797 864.841309,378.206085 855.683350,374.365662 
	C841.891296,368.581909 828.300171,362.319427 814.514343,356.520325 
	C806.019897,352.947052 797.311523,349.884308 788.719849,346.539459 
	C783.857056,344.646362 779.158142,342.174469 774.148804,340.876251 
	C771.275269,340.131531 767.161377,340.126373 764.946411,341.688751 
	C759.523743,345.513702 761.425842,351.901337 768.580078,354.926270 
	C785.442627,362.056061 802.336487,369.112396 819.248169,376.125031 
	C871.674927,397.864349 924.102478,419.601898 976.585754,441.204010 
	C979.606262,442.447205 980.446472,444.072266 980.569397,447.096100 
	C982.985535,506.524567 985.526917,565.947876 987.970154,625.375305 
	C989.708435,667.656189 991.363953,709.940613 992.988892,752.226013 
	C993.203674,757.815247 993.018372,763.419922 993.018372,769.717651 
	C991.079407,768.996155 989.555603,768.516357 988.102722,767.875671 
	C961.600952,756.188660 935.105225,744.488037 908.613281,732.778748 
	C858.376709,710.574402 808.138245,688.374084 757.914673,666.140442 
	C751.201538,663.168518 749.907471,663.267639 744.893555,668.706055 
	C732.023499,682.666321 719.225403,696.692871 706.377197,710.673401 
	C705.248596,711.901367 703.964355,712.986267 701.803406,715.039185 
	C701.803406,711.765625 701.806702,709.972534 701.802917,708.179382 
	C701.742310,679.681335 701.704712,651.183228 701.614868,622.685242 
	C701.393555,552.526978 701.129578,482.368866 700.994446,412.210480 
	C700.989990,409.913330 701.520813,407.011261 702.946533,405.410431 
	C714.688354,392.226929 726.693665,379.277832 738.649048,366.285309 
	C739.428894,365.437836 740.456055,364.817963 742.019714,363.573761 
	C742.019714,366.405701 742.019226,368.220825 742.019775,370.035950 
	C742.047180,463.529785 742.074097,557.023621 742.102966,650.517456 
	C742.105408,658.542358 744.429321,662.089478 749.763123,662.241089 
	C755.237000,662.396667 757.765259,658.671753 757.735229,650.342957 
	C757.616882,617.516968 757.401978,584.691162 757.361572,551.865051 
	C757.276733,483.036285 757.322144,414.207336 757.108826,345.379089 
	C757.099121,342.238281 755.082092,339.103729 753.987854,335.208923 
	C752.307922,330.719513 754.391113,327.682007 757.801819,325.079132 
	C759.378967,323.875519 760.935913,322.600983 762.294739,321.162720 
	C772.492310,310.368896 782.647156,299.534637 792.797546,288.696381 
	C802.303833,278.545929 812.347229,268.829010 821.093933,258.060120 
	C827.354797,250.351776 837.130005,245.226562 839.400757,234.399353 
	C839.549438,233.690262 840.427917,233.123413 840.992371,232.513977 
	C845.279907,227.885025 849.531311,223.221619 853.873718,218.644608 
	C867.029114,204.778671 880.229980,190.955856 893.392639,177.096863 
	C897.837280,172.417114 902.244507,167.701187 906.627380,162.963562 
	C914.857971,154.066986 923.012451,145.099625 931.286011,136.243484 
	C937.723206,129.353043 944.306946,122.599701 950.800964,115.762138 
	C960.039429,106.034950 969.314209,96.341110 978.441528,86.510490 
	C980.883545,83.880280 982.845764,80.804596 985.028198,77.933426 
	C984.517700,77.450630 984.007141,76.967834 983.496643,76.485046 
	C981.169434,78.605057 978.677429,80.571983 976.542175,82.870331 
	C964.255188,96.096252 952.147034,109.489258 939.794189,122.652901 
	C927.995178,135.226334 915.849243,147.474777 904.080627,160.076050 
	C892.300476,172.689575 880.938721,185.694214 869.138672,198.288605 
	C854.852661,213.536331 840.286011,228.520905 825.876770,243.653534 
	C823.938232,245.689377 822.317200,248.029297 820.362732,250.047852 
	C814.061035,256.555847 807.579529,262.891357 801.341614,269.458893 
	C794.400635,276.766724 787.740173,284.341248 780.790405,291.640381 
	C774.887329,297.840118 768.593750,303.670471 762.743591,309.917633 
	C751.739868,321.668060 740.849915,333.527985 730.083313,345.495880 
	C725.993774,350.041779 722.096619,354.822083 718.666565,359.872375 
	C717.105957,362.170288 716.893250,365.383698 715.870056,368.690460 
	C715.322632,369.154602 714.775208,369.618713 713.446106,370.102081 
	C712.676331,371.533020 711.906616,372.963959 710.893127,374.743561 
	C710.653442,374.906372 710.389648,375.004456 709.310425,375.016113 
	C706.503418,376.547760 702.798767,377.407562 701.056030,379.735809 
	C695.625183,386.991425 688.174316,390.830444 680.182678,394.153717 
	C679.059509,394.620819 677.606995,395.699646 677.398438,396.718658 
	C676.513611,401.042877 675.993164,405.445251 675.427917,409.830475 
	C674.659180,415.795349 673.910950,421.764374 673.292664,427.745972 
	C673.146973,429.155365 673.070679,430.951385 673.788452,432.008850 
	C678.344238,438.720551 678.300720,446.298584 677.959473,453.827820 
	C677.691345,459.742615 675.958252,465.650055 676.164917,471.515350 
	C676.633118,484.805664 677.909851,498.067047 678.804871,511.343750 
	C678.857605,512.126892 678.324646,512.932983 678.264526,513.743225 
	C677.923462,518.338562 676.166870,523.489563 677.636658,527.426880 
	C681.165771,536.880615 679.669189,545.967285 678.446899,555.344543 
	C677.404358,563.343140 674.909119,571.994202 676.892151,579.317993 
	C679.045776,587.271667 676.855347,594.577209 677.617554,602.137024 
	C678.267334,608.580566 677.212463,615.187317 677.067444,621.725342 
	C677.027954,623.504089 678.223022,625.527954 677.699158,627.040161 
	C675.588562,633.133606 676.616211,638.847961 677.723389,645.046265 
	C679.635193,655.749451 680.047241,666.725769 680.973511,677.597229 
	C681.366028,682.203491 682.358398,687.007141 681.503235,691.415649 
	C680.039490,698.961914 677.291748,706.254944 675.183777,713.682861 
	C674.605408,715.720947 674.053589,717.859924 674.049438,719.953735 
	C673.980042,754.605469 674.061584,789.257629 673.922791,823.908997 
	C673.905212,828.286255 674.880615,830.197388 679.731384,830.152710 
	C684.401062,830.109558 686.145447,828.917419 686.102112,823.948669 
	C685.880859,798.628113 685.950195,773.304199 686.094482,747.982544 
	C686.106018,745.954346 687.456482,743.933838 688.836792,742.183838 
	C698.502930,746.876404 708.088318,751.746155 717.863647,756.199036 
	C724.360779,759.158630 731.129211,761.522644 737.944458,765.056091 
	C737.944458,774.255798 737.944458,783.455505 737.944458,793.053284 
	C747.196899,788.558289 755.510193,784.304932 764.053650,780.579285 
	C765.485596,779.954834 768.668823,781.008057 769.740967,782.336670 
	C772.913086,786.267761 775.376099,790.763489 778.221619,794.967163 
	C782.748230,801.654358 787.359863,808.283997 792.220703,815.352661 
	C792.220703,806.669739 792.220703,798.814758 792.933716,791.042664 
	C795.775574,792.279663 798.657349,793.433044 801.452332,794.768066 
	C813.680298,800.608887 825.812561,806.654785 838.110962,812.342163 
	C858.712524,821.869324 879.441956,831.119751 900.063843,840.603333 
	C913.590332,846.823853 926.996704,853.306091 940.539185,859.490845 
	C941.799866,860.066589 944.156616,859.925659 945.129211,859.093933 
	C947.075439,857.429504 949.162415,855.269836 949.833191,852.926025 
	C950.881531,849.263062 949.594543,845.848450 946.053589,843.590027 
	C944.173767,842.391113 942.508301,840.856201 939.530762,838.518982 
	C943.707336,834.875610 947.486328,831.951965 950.818665,828.585999 
	C956.005737,823.346497 960.940491,817.852783 965.887878,812.381470 
	C971.621216,806.041077 977.341187,799.684204 982.891357,793.184509 
	C985.753967,789.832275 984.982422,787.332031 980.766296,786.289062 
	C976.020264,791.322021 971.470947,796.146362 966.240784,800.894714 
M896.696228,697.854248 
	C920.559509,708.562561 944.422729,719.270874 969.349243,730.456299 
	C968.879578,721.940796 968.328735,714.673401 968.109131,707.396057 
	C967.667786,692.767334 967.456299,678.131714 967.060364,663.501404 
	C966.439697,640.567932 965.677612,617.638184 965.097900,594.703735 
	C964.337097,564.609558 963.692566,534.512451 963.003296,504.416504 
	C962.652954,489.118744 962.424866,473.816315 961.819824,458.528687 
	C961.749634,456.754486 960.002563,454.160522 958.382874,453.468994 
	C939.125610,445.246887 919.748108,437.306213 900.395874,429.306702 
	C865.992981,415.085724 831.591370,400.861481 797.174988,386.673248 
	C791.415955,384.299072 785.584900,382.099548 778.996033,379.508179 
	C778.996033,382.267609 778.960632,384.058838 779.001709,385.848297 
	C779.299683,398.814911 779.639160,411.780579 779.915161,424.747650 
	C780.276245,441.711426 780.603882,458.675964 780.921936,475.640625 
	C781.268066,494.104492 781.656982,512.567932 781.902222,531.033142 
	C782.333313,563.490479 782.670715,595.949097 783.042419,628.407166 
	C783.078674,631.572266 783.089539,634.737671 783.096985,637.902954 
	C783.111694,644.150146 784.582397,649.156555 791.870911,650.658752 
	C794.879150,651.278809 797.579895,653.321716 800.465271,654.617737 
	C832.313782,668.922241 864.171082,683.207092 896.696228,697.854248 
M730.037964,562.500000 
	C730.037964,507.281952 730.037964,452.063873 730.037964,395.223114 
	C725.924866,399.714600 723.198059,403.521088 719.686157,406.354187 
	C712.454285,412.188080 713.787292,419.715210 714.613892,427.295135 
	C714.757690,428.613861 714.907227,429.939972 714.918701,431.263855 
	C715.275085,472.376373 715.706177,513.488586 715.928711,554.601807 
	C716.118896,589.745361 716.028564,624.890381 716.167114,660.034363 
	C716.185730,664.758911 716.818237,669.481018 717.269714,675.605652 
	C720.044983,672.617493 721.953735,670.381714 724.051880,668.340637 
	C728.413269,664.097961 730.296021,659.361328 730.211548,652.940918 
	C729.819336,623.131653 730.037964,593.314392 730.037964,562.500000 
M1089.220459,674.957336 
	C1101.727905,669.352478 1106.465698,654.018738 1100.386841,640.913696 
	C1096.124756,631.725281 1088.594360,627.125732 1078.601929,626.959106 
	C1064.945679,626.731384 1051.283447,626.854309 1037.623779,626.863281 
	C1036.860596,626.863831 1036.097656,627.195190 1035.472656,627.340454 
	C1035.472656,655.035767 1035.472656,682.403809 1035.472656,709.732727 
	C1038.675415,709.732727 1041.447144,709.732727 1044.889160,709.732727 
	C1044.889160,699.087158 1044.889160,688.708069 1044.889160,677.947815 
	C1053.028564,677.947815 1060.515747,677.654724 1067.956177,678.116638 
	C1070.357422,678.265686 1073.477051,679.811340 1074.818237,681.731018 
	C1079.618286,688.601318 1083.812866,695.895935 1088.205444,703.049133 
	C1092.839111,710.594910 1095.065674,711.500610 1103.943481,709.181702 
	C1103.561157,707.768188 1103.509155,706.136108 1102.743164,704.975037 
	C1097.307739,696.736206 1091.878906,688.484314 1086.127686,680.466248 
	C1083.162964,676.332886 1082.986694,676.253540 1089.220459,674.957336 
M1035.985596,507.558960 
	C1028.035645,518.195496 1029.199097,530.043213 1039.830322,536.988037 
	C1044.907349,540.304565 1051.173584,541.915833 1057.042725,543.875732 
	C1064.750732,546.449585 1072.610962,548.564514 1080.380981,550.957092 
	C1084.695312,552.285522 1087.823242,555.396057 1087.929443,559.718445 
	C1088.047729,564.533630 1086.197144,568.903137 1081.235474,571.471741 
	C1075.245972,574.572571 1068.969238,575.383850 1062.433960,574.992615 
	C1047.270142,574.084656 1040.900391,568.850403 1038.013306,558.127136 
	C1037.067505,558.083740 1036.079590,558.009583 1035.090942,557.997498 
	C1026.590210,557.893677 1027.055298,557.727478 1029.912354,565.564087 
	C1032.823608,573.549438 1038.034546,578.917053 1045.737915,581.617249 
	C1057.708008,585.813110 1069.990234,586.117432 1081.957275,581.748169 
	C1086.152100,580.216553 1090.864380,577.773071 1093.327393,574.313049 
	C1098.410889,567.171387 1100.752563,558.916931 1095.535034,550.475464 
	C1094.381714,548.609436 1093.096802,546.292297 1091.285034,545.457520 
	C1083.228516,541.745178 1075.873413,536.648621 1066.330322,536.059814 
	C1059.339355,535.628418 1052.595703,532.706543 1046.401489,528.620789 
	C1043.456299,526.678101 1039.913818,525.497681 1041.018188,521.672974 
	C1042.098145,517.932617 1043.874023,513.165100 1046.850464,511.426849 
	C1056.433716,505.829956 1066.857422,506.950500 1076.749634,511.116547 
	C1079.549927,512.295837 1082.199219,515.048401 1083.740845,517.750854 
	C1087.024170,523.506714 1087.863281,524.166504 1094.796997,522.201965 
	C1095.375977,512.495544 1085.299683,500.127472 1075.847168,499.418091 
	C1069.465454,498.939117 1063.009155,498.694885 1056.633423,499.096283 
	C1049.192017,499.564819 1041.739990,500.695038 1035.985596,507.558960 
M1219.934082,562.670959 
	C1220.795776,568.959534 1224.443359,573.800842 1229.182495,577.347717 
	C1237.105103,583.277222 1245.726807,587.479492 1256.103394,583.116211 
	C1260.689941,581.187622 1265.469116,579.717041 1270.469604,577.928101 
	C1270.809937,579.608948 1271.119385,581.137085 1271.405762,582.551025 
	C1274.718506,582.551025 1277.754883,582.551025 1280.740723,582.551025 
	C1280.740723,553.214539 1280.740723,524.322327 1280.740723,495.203552 
	C1277.713745,495.203552 1274.999146,495.203552 1271.775635,495.203552 
	C1271.775635,500.817413 1271.775757,506.104156 1271.775757,511.390869 
	C1271.775757,516.781006 1271.775635,522.171082 1271.775635,528.238159 
	C1254.600708,517.218140 1240.686646,516.204102 1229.665527,525.030151 
	C1220.251587,532.569092 1214.828125,549.121643 1219.934082,562.670959 
M1250.901367,655.020630 
	C1253.231445,654.986755 1255.761597,654.355652 1257.846313,655.054138 
	C1261.268311,656.200806 1266.156128,657.430786 1267.302979,660.012817 
	C1269.973999,666.026184 1273.969116,665.172424 1278.530273,664.638733 
	C1279.202148,658.234375 1276.020996,651.148865 1271.333374,649.405334 
	C1260.471924,645.365417 1249.697754,643.957336 1238.442871,648.980469 
	C1229.455688,652.991455 1226.634521,669.868774 1234.219360,674.488037 
	C1238.587769,677.148560 1243.516602,679.009949 1248.374268,680.715088 
	C1254.352051,682.813293 1260.645386,684.049438 1266.531494,686.350891 
	C1268.473877,687.110413 1270.153442,689.815247 1270.927368,691.994812 
	C1272.115234,695.340515 1270.445435,698.269165 1267.384277,699.880066 
	C1261.990234,702.718628 1256.135132,704.328796 1250.236206,702.118713 
	C1246.725586,700.803467 1242.267212,698.910767 1240.793823,695.987915 
	C1238.539917,691.516174 1236.146729,689.772156 1231.283569,689.521118 
	C1228.028198,689.353088 1227.517090,690.769836 1228.196167,692.787415 
	C1229.273193,695.987793 1230.543213,699.376709 1232.644897,701.935791 
	C1242.705811,714.186218 1261.591064,714.159668 1273.787720,707.445129 
	C1279.848022,704.108948 1284.557007,691.854248 1281.039917,686.114319 
	C1277.840576,680.892822 1272.976074,676.249207 1266.135132,674.968323 
	C1259.782593,673.778870 1253.461670,672.404846 1247.164062,670.950562 
	C1245.585693,670.585999 1243.508179,669.994263 1242.787354,668.816772 
	C1241.421143,666.584839 1240.245850,663.858826 1240.224365,661.327515 
	C1240.212280,659.896118 1242.435547,658.091492 1244.047974,657.096497 
	C1245.798706,656.016052 1248.008789,655.680115 1250.901367,655.020630 
M1322.236694,565.572327 
	C1321.536011,566.737000 1320.835327,567.901672 1319.887451,569.476990 
	C1319.096558,568.142517 1318.577515,567.482605 1318.281128,566.734619 
	C1313.226074,553.977966 1308.193848,541.212280 1303.166626,528.444641 
	C1299.655884,519.528198 1299.662354,519.522034 1290.203003,520.119080 
	C1289.938477,520.135803 1289.690918,520.421204 1289.247070,520.699341 
	C1296.173218,537.477173 1302.661743,554.476257 1310.230591,570.979980 
	C1313.925537,579.036499 1314.720459,585.780640 1309.571777,593.404785 
	C1306.752563,597.579468 1305.506592,602.816650 1303.403931,607.933411 
	C1306.396851,607.933411 1308.827393,608.351379 1311.017090,607.804260 
	C1312.843506,607.347961 1314.922241,606.116394 1315.935791,604.593506 
	C1317.619995,602.063171 1318.629395,599.059631 1319.765503,596.192993 
	C1323.973022,585.576111 1327.951416,574.865112 1332.348633,564.328369 
	C1334.747070,558.581543 1337.956177,553.178284 1340.536621,547.500610 
	C1342.733276,542.667603 1344.591187,537.678284 1346.528687,532.730652 
	C1348.111206,528.689026 1349.589966,524.606812 1351.254639,520.170105 
	C1346.927979,520.170105 1343.615356,520.145752 1340.303833,520.199646 
	C1339.868530,520.206665 1339.147095,520.529358 1339.054688,520.849304 
	C1338.381592,523.177490 1337.843506,525.544434 1337.240356,527.893433 
	C1337.160400,528.205261 1336.930664,528.475403 1336.811035,528.780762 
	C1332.088745,540.824524 1327.370972,552.870056 1322.236694,565.572327 
M1160.106445,533.508240 
	C1160.106445,529.095764 1160.106445,524.683289 1160.106445,520.407715 
	C1156.530273,520.407715 1153.806763,520.407715 1150.864868,520.407715 
	C1150.864868,533.464905 1151.145874,546.113037 1150.773315,558.741882 
	C1150.490845,568.319092 1154.437866,575.642761 1162.153687,580.384460 
	C1168.359497,584.198059 1175.359253,587.259399 1182.991333,583.089661 
	C1187.169800,580.806763 1191.478149,578.761536 1195.796509,576.574341 
	C1195.969849,578.717102 1196.126465,580.652893 1196.284790,582.610718 
	C1199.666626,582.610718 1202.719727,582.610718 1205.851807,582.610718 
	C1205.851807,561.667908 1205.851807,541.104980 1205.851807,520.278687 
	C1202.843140,520.278687 1200.119263,520.278687 1197.104004,520.278687 
	C1197.019409,522.174438 1196.887695,523.797302 1196.884277,525.420471 
	C1196.863770,535.406921 1196.758423,545.395081 1196.902344,555.379456 
	C1197.052124,565.767761 1187.013306,575.209412 1177.563721,575.307861 
	C1167.425171,575.413574 1159.939331,566.762451 1160.094727,555.975525 
	C1160.197754,548.820068 1160.109375,541.661865 1160.106445,533.508240 
M559.987549,526.512756 
	C553.053284,534.113464 546.215149,541.804504 539.163940,549.295166 
	C526.177551,563.090942 513.020081,576.725952 500.077850,590.562622 
	C498.785583,591.944153 498.484833,594.253113 497.723907,596.131653 
	C499.789856,596.441528 500.907928,596.274475 501.525513,595.628723 
	C507.720978,589.150574 513.855591,582.613708 519.964111,576.053101 
	C525.052490,570.587952 529.196350,563.505676 535.379944,559.998535 
	C542.019714,556.232727 546.740845,551.304199 551.661865,545.957581 
	C566.847656,529.458496 582.266296,513.172852 597.656799,496.863098 
	C610.431519,483.325287 623.295593,469.871765 636.113708,456.374939 
	C636.684631,455.773773 637.624390,455.130707 637.651611,454.476379 
	C637.747131,452.177063 637.518921,449.864319 637.413513,447.556671 
	C635.586609,448.227783 633.229248,448.391815 632.021545,449.654999 
	C625.719116,456.246857 619.822998,463.225311 613.575073,469.871521 
	C595.934143,488.636902 578.190674,507.305786 559.987549,526.512756 
M1126.004150,499.851379 
	C1124.229614,494.496216 1120.402222,498.293274 1116.878418,497.302521 
	C1116.878418,505.157104 1116.878418,512.381226 1116.878418,520.189575 
	C1112.018188,520.189575 1107.776001,520.189575 1103.514038,520.189575 
	C1103.514038,523.045288 1103.514038,525.285278 1103.514038,528.179932 
	C1108.067993,528.179932 1112.309326,528.179932 1117.104004,528.179932 
	C1117.104004,546.728516 1117.104004,564.624817 1117.104004,582.618774 
	C1120.570190,582.618774 1123.452148,582.618774 1126.717651,582.618774 
	C1126.717651,564.665344 1126.717651,547.079468 1126.717651,528.819458 
	C1131.661865,528.819458 1136.209351,528.819458 1140.611328,528.819458 
	C1140.611328,525.540039 1140.611328,522.949951 1140.611328,519.987000 
	C1136.962646,519.987000 1133.649292,519.835632 1130.356445,520.030212 
	C1127.159424,520.219055 1125.823242,519.109741 1125.959839,515.773438 
	C1126.163940,510.784210 1126.011353,505.780396 1126.004150,499.851379 
z"/>
<path fill="#A8D8FF" opacity="1.000000" stroke="none" 
	d="
M896.361084,697.675781 
	C864.171082,683.207092 832.313782,668.922241 800.465271,654.617737 
	C797.579895,653.321716 794.879150,651.278809 791.870911,650.658752 
	C784.582397,649.156555 783.111694,644.150146 783.096985,637.902954 
	C783.089539,634.737671 783.078674,631.572266 783.042419,628.407166 
	C782.670715,595.949097 782.333313,563.490479 781.902222,531.033142 
	C781.656982,512.567932 781.268066,494.104492 780.921936,475.640625 
	C780.603882,458.675964 780.276245,441.711426 779.915161,424.747650 
	C779.639160,411.780579 779.299683,398.814911 779.001709,385.848297 
	C778.960632,384.058838 778.996033,382.267609 778.996033,379.508179 
	C785.584900,382.099548 791.415955,384.299072 797.174988,386.673248 
	C831.591370,400.861481 865.992981,415.085724 900.395874,429.306702 
	C919.748108,437.306213 939.125610,445.246887 958.382874,453.468994 
	C960.002563,454.160522 961.749634,456.754486 961.819824,458.528687 
	C962.424866,473.816315 962.652954,489.118744 963.003296,504.416504 
	C963.692566,534.512451 964.337097,564.609558 965.097900,594.703735 
	C965.677612,617.638184 966.439697,640.567932 967.060364,663.501404 
	C967.456299,678.131714 967.667786,692.767334 968.109131,707.396057 
	C968.328735,714.673401 968.879578,721.940796 969.349243,730.456299 
	C944.422729,719.270874 920.559509,708.562561 896.361084,697.675781 
z"/>
<path fill="#598EFF" opacity="1.000000" stroke="none" 
	d="
M1009.083435,763.998108 
	C1009.255188,769.299622 1009.811646,774.627380 1009.453491,779.892822 
	C1009.240967,783.018127 1008.454407,787.033691 1006.363586,788.868652 
	C1003.700012,791.206360 999.603027,791.049316 995.870911,789.159119 
	C988.261963,785.305542 980.544617,781.648987 972.757141,778.168091 
	C948.305725,767.238586 923.805481,756.418152 899.315918,745.574097 
	C869.804932,732.506531 840.284058,719.461182 810.770203,706.400024 
	C793.424805,698.723877 776.038574,691.136841 758.774414,683.281921 
	C754.431213,681.305908 751.917419,682.371338 749.966736,686.895020 
	C758.591675,690.806274 767.174438,694.761597 775.808167,698.602478 
	C807.579346,712.736389 839.366333,726.834717 871.149414,740.941956 
	C897.456970,752.618896 923.769775,764.283813 950.074463,775.966980 
	C956.765381,778.938782 963.516479,781.796936 970.049316,785.085876 
	C971.473999,785.803162 972.083008,788.140564 973.067688,789.731812 
	C971.175659,789.952942 968.943542,790.945251 967.441101,790.282776 
	C925.124817,771.624207 882.884705,752.792908 840.626709,734.002197 
	C809.922363,720.349060 779.191406,706.755493 748.526245,693.014954 
	C744.822449,691.355408 742.966064,692.851074 741.015747,696.412659 
	C746.275574,698.816895 751.446411,701.239502 756.664368,703.555786 
	C787.836731,717.392639 819.033752,731.174011 850.195923,745.033630 
	C887.135559,761.462952 924.061401,777.923584 960.929138,794.513000 
	C962.547729,795.241272 963.528137,797.387756 964.582397,799.357605 
	C964.107910,800.070251 963.953857,800.351990 963.509583,800.781921 
	C961.524353,800.570862 959.796082,800.558228 958.347412,799.915344 
	C926.888123,785.955872 895.464478,771.916260 864.024963,757.912292 
	C822.860962,739.577026 781.675537,721.289734 740.543579,702.882996 
	C736.724121,701.173767 734.300476,701.666443 732.680359,706.073853 
	C734.029297,706.765320 735.289246,707.489136 736.609802,708.076477 
	C758.942444,718.008972 781.283813,727.921936 803.620972,737.844421 
	C827.940186,748.647400 852.255066,759.460083 876.575256,770.260864 
	C901.959900,781.534363 927.371033,792.748901 952.679260,804.191284 
	C954.189819,804.874268 954.890320,807.349060 955.691895,809.181763 
	C953.318237,809.337952 950.934265,809.951721 949.164612,809.171692 
	C908.839905,791.397705 868.590210,773.453491 828.307556,755.583923 
	C815.704163,749.992859 803.045715,744.525879 790.144348,738.827881 
	C786.424683,737.028564 783.011108,735.316345 779.514893,733.794006 
	C765.808594,727.825928 752.076294,721.917664 738.101807,715.725952 
	C735.768066,714.468994 733.606140,713.609924 731.621033,712.448669 
	C727.583679,710.087036 725.357788,711.678467 723.678650,715.851746 
	C728.582214,717.964417 733.260803,719.980103 738.022949,722.467346 
	C737.999329,724.848572 737.892090,726.758301 737.416382,728.543945 
	C732.517944,726.430298 727.838989,724.716125 723.501587,722.370667 
	C719.470398,720.190918 716.800232,720.554810 714.818726,725.551819 
	C722.585938,728.844910 730.272583,732.103821 738.028503,735.779663 
	C738.014404,738.175903 737.931152,740.155334 737.491760,742.083374 
	C728.940857,738.400391 720.714478,734.837463 712.568726,731.098694 
	C709.838135,729.845337 708.304443,730.355225 707.385864,733.653687 
	C717.639038,738.225647 727.772156,742.744019 737.978516,747.708496 
	C737.959900,753.487549 737.868103,758.820374 737.776245,764.153259 
	C731.129211,761.522644 724.360779,759.158630 717.863647,756.199036 
	C708.088318,751.746155 698.502930,746.876404 688.446899,741.631104 
	C687.596680,738.830322 686.780090,736.589294 686.735291,734.333008 
	C686.487061,721.851379 686.327026,709.366028 686.318054,696.881897 
	C686.248413,599.797119 686.184631,502.712280 686.343750,405.627838 
	C686.348755,402.566467 688.145203,398.961945 690.206787,396.551758 
	C696.551147,389.134705 703.430359,382.175171 710.101746,375.037872 
	C710.389648,375.004456 710.653442,374.906372 711.308716,374.382172 
	C712.558777,372.708130 713.393250,371.395477 714.227783,370.082825 
	C714.775208,369.618713 715.322632,369.154602 716.270203,368.279846 
	C725.914368,357.988831 735.290161,348.226654 744.327515,338.160706 
	C747.299377,334.850647 750.257019,334.412506 754.000000,335.966248 
	C755.082092,339.103729 757.099121,342.238281 757.108826,345.379089 
	C757.322144,414.207336 757.276733,483.036285 757.361572,551.865051 
	C757.401978,584.691162 757.616882,617.516968 757.735229,650.342957 
	C757.765259,658.671753 755.237000,662.396667 749.763123,662.241089 
	C744.429321,662.089478 742.105408,658.542358 742.102966,650.517456 
	C742.074097,557.023621 742.047180,463.529785 742.019775,370.035950 
	C742.019226,368.220825 742.019714,366.405701 742.019714,363.573761 
	C740.456055,364.817963 739.428894,365.437836 738.649048,366.285309 
	C726.693665,379.277832 714.688354,392.226929 702.946533,405.410431 
	C701.520813,407.011261 700.989990,409.913330 700.994446,412.210480 
	C701.129578,482.368866 701.393555,552.526978 701.614868,622.685242 
	C701.704712,651.183228 701.742310,679.681335 701.802917,708.179382 
	C701.806702,709.972534 701.803406,711.765625 701.803406,715.039185 
	C703.964355,712.986267 705.248596,711.901367 706.377197,710.673401 
	C719.225403,696.692871 732.023499,682.666321 744.893555,668.706055 
	C749.907471,663.267639 751.201538,663.168518 757.914673,666.140442 
	C808.138245,688.374084 858.376709,710.574402 908.613281,732.778748 
	C935.105225,744.488037 961.600952,756.188660 988.102722,767.875671 
	C989.555603,768.516357 991.079407,768.996155 993.018372,769.717651 
	C993.018372,763.419922 993.203674,757.815247 992.988892,752.226013 
	C991.363953,709.940613 989.708435,667.656189 987.970154,625.375305 
	C985.526917,565.947876 982.985535,506.524567 980.569397,447.096100 
	C980.446472,444.072266 979.606262,442.447205 976.585754,441.204010 
	C924.102478,419.601898 871.674927,397.864349 819.248169,376.125031 
	C802.336487,369.112396 785.442627,362.056061 768.580078,354.926270 
	C761.425842,351.901337 759.523743,345.513702 764.946411,341.688751 
	C767.161377,340.126373 771.275269,340.131531 774.148804,340.876251 
	C779.158142,342.174469 783.857056,344.646362 788.719849,346.539459 
	C797.311523,349.884308 806.019897,352.947052 814.514343,356.520325 
	C828.300171,362.319427 841.891296,368.581909 855.683350,374.365662 
	C864.841309,378.206085 874.269958,381.397797 883.458984,385.168549 
	C891.182495,388.338013 898.653381,392.123871 906.381775,395.280243 
	C918.320801,400.156342 930.443054,404.584290 942.373657,409.479919 
	C950.287354,412.727234 957.974792,416.521759 965.813293,419.957764 
	C974.290466,423.673706 982.824646,427.259796 991.335938,430.897888 
	C994.609619,432.297211 995.759094,434.880615 995.857971,438.310303 
	C996.169189,449.113068 996.454895,459.920715 997.047729,470.710175 
	C997.767151,483.803741 998.852539,496.876923 999.623596,509.968140 
	C999.765991,512.386047 998.833435,514.865601 998.964355,517.286011 
	C999.836182,533.406372 1001.077332,549.509277 1001.761841,565.636414 
	C1002.211731,576.235535 1001.733276,586.871460 1002.042297,597.480103 
	C1002.273438,605.412598 1003.265320,613.320618 1003.610901,621.252869 
	C1003.948914,629.010315 1003.782104,636.788940 1004.060974,644.550171 
	C1004.220825,648.999573 1005.064331,653.427124 1005.175354,657.875061 
	C1005.335083,664.269226 1005.107727,670.673157 1005.047607,677.947815 
	C1005.392822,682.214539 1005.736023,685.606323 1006.079224,688.998108 
	C1006.906555,704.126587 1007.868591,719.249451 1008.493591,734.386292 
	C1008.736267,740.265686 1008.217651,746.176514 1008.047791,752.947998 
	C1008.394287,757.214600 1008.738892,760.606384 1009.083435,763.998108 
z"/>
<path fill="#FEFFFF" opacity="1.000000" stroke="none" 
	d="
M709.706055,375.026978 
	C703.430359,382.175171 696.551147,389.134705 690.206787,396.551758 
	C688.145203,398.961945 686.348755,402.566467 686.343750,405.627838 
	C686.184631,502.712280 686.248413,599.797119 686.318054,696.881897 
	C686.327026,709.366028 686.487061,721.851379 686.735291,734.333008 
	C686.780090,736.589294 687.596680,738.830322 688.120850,741.494080 
	C687.456482,743.933838 686.106018,745.954346 686.094482,747.982544 
	C685.950195,773.304199 685.880859,798.628113 686.102112,823.948669 
	C686.145447,828.917419 684.401062,830.109558 679.731384,830.152710 
	C674.880615,830.197388 673.905212,828.286255 673.922791,823.908997 
	C674.061584,789.257629 673.980042,754.605469 674.049438,719.953735 
	C674.053589,717.859924 674.605408,715.720947 675.183777,713.682861 
	C677.291748,706.254944 680.039490,698.961914 681.503235,691.415649 
	C682.358398,687.007141 681.366028,682.203491 680.973511,677.597229 
	C680.047241,666.725769 679.635193,655.749451 677.723389,645.046265 
	C676.616211,638.847961 675.588562,633.133606 677.699158,627.040161 
	C678.223022,625.527954 677.027954,623.504089 677.067444,621.725342 
	C677.212463,615.187317 678.267334,608.580566 677.617554,602.137024 
	C676.855347,594.577209 679.045776,587.271667 676.892151,579.317993 
	C674.909119,571.994202 677.404358,563.343140 678.446899,555.344543 
	C679.669189,545.967285 681.165771,536.880615 677.636658,527.426880 
	C676.166870,523.489563 677.923462,518.338562 678.264526,513.743225 
	C678.324646,512.932983 678.857605,512.126892 678.804871,511.343750 
	C677.909851,498.067047 676.633118,484.805664 676.164917,471.515350 
	C675.958252,465.650055 677.691345,459.742615 677.959473,453.827820 
	C678.300720,446.298584 678.344238,438.720551 673.788452,432.008850 
	C673.070679,430.951385 673.146973,429.155365 673.292664,427.745972 
	C673.910950,421.764374 674.659180,415.795349 675.427917,409.830475 
	C675.993164,405.445251 676.513611,401.042877 677.398438,396.718658 
	C677.606995,395.699646 679.059509,394.620819 680.182678,394.153717 
	C688.174316,390.830444 695.625183,386.991425 701.056030,379.735809 
	C702.798767,377.407562 706.503418,376.547760 709.706055,375.026978 
z"/>
<path fill="#A9D8FF" opacity="1.000000" stroke="none" 
	d="
M730.037964,563.000000 
	C730.037964,593.314392 729.819336,623.131653 730.211548,652.940918 
	C730.296021,659.361328 728.413269,664.097961 724.051880,668.340637 
	C721.953735,670.381714 720.044983,672.617493 717.269714,675.605652 
	C716.818237,669.481018 716.185730,664.758911 716.167114,660.034363 
	C716.028564,624.890381 716.118896,589.745361 715.928711,554.601807 
	C715.706177,513.488586 715.275085,472.376373 714.918701,431.263855 
	C714.907227,429.939972 714.757690,428.613861 714.613892,427.295135 
	C713.787292,419.715210 712.454285,412.188080 719.686157,406.354187 
	C723.198059,403.521088 725.924866,399.714600 730.037964,395.223114 
	C730.037964,452.063873 730.037964,507.281952 730.037964,563.000000 
z"/>
<path fill="#251F48" opacity="1.000000" stroke="none" 
	d="
M737.860352,764.604675 
	C737.868103,758.820374 737.959900,753.487549 738.063354,747.277832 
	C737.999268,744.978882 737.923523,743.556763 737.847839,742.134705 
	C737.931152,740.155334 738.014404,738.175903 738.112061,735.335632 
	C738.012512,732.539185 737.898682,730.603577 737.784851,728.668030 
	C737.892090,726.758301 737.999329,724.848572 738.140137,722.053528 
	C738.233765,719.441162 738.293762,717.714172 738.353760,715.987122 
	C752.076294,721.917664 765.808594,727.825928 779.514893,733.794006 
	C783.011108,735.316345 786.424683,737.028564 790.056091,739.255981 
	C790.468323,741.866333 790.700623,743.874146 790.861084,746.323364 
	C790.885498,748.808044 790.981873,750.851379 790.997803,753.322144 
	C791.044189,755.757874 791.170898,757.766174 791.224731,760.179443 
	C791.228394,762.636230 791.304993,764.688110 791.334290,767.187500 
	C791.491272,769.400146 791.695496,771.165283 791.823242,773.398193 
	C791.904724,779.563904 792.062744,785.261841 792.220703,790.959778 
	C792.220703,798.814758 792.220703,806.669739 792.220703,815.352661 
	C787.359863,808.283997 782.748230,801.654358 778.221619,794.967163 
	C775.376099,790.763489 772.913086,786.267761 769.740967,782.336670 
	C768.668823,781.008057 765.485596,779.954834 764.053650,780.579285 
	C755.510193,784.304932 747.196899,788.558289 737.944458,793.053284 
	C737.944458,783.455505 737.944458,774.255798 737.860352,764.604675 
z"/>
<path fill="#5A8EFF" opacity="1.000000" stroke="none" 
	d="
M792.577209,791.001221 
	C792.062744,785.261841 791.904724,779.563904 792.192383,773.450195 
	C807.376221,779.921448 822.101746,786.835876 836.855347,793.689941 
	C867.876648,808.101624 898.901184,822.506775 929.983887,836.785095 
	C931.263123,837.372742 933.836487,837.293030 934.640930,836.433228 
	C943.030396,827.466675 951.180725,818.276489 959.658203,808.976685 
	C961.625427,806.876709 963.331909,804.948303 965.302917,802.905029 
	C966.018921,802.183716 966.470337,801.577209 966.921753,800.970703 
	C971.470947,796.146362 976.020264,791.322021 980.766296,786.289062 
	C984.982422,787.332031 985.753967,789.832275 982.891357,793.184509 
	C977.341187,799.684204 971.621216,806.041077 965.887878,812.381470 
	C960.940491,817.852783 956.005737,823.346497 950.818665,828.585999 
	C947.486328,831.951965 943.707336,834.875610 939.530762,838.518982 
	C942.508301,840.856201 944.173767,842.391113 946.053589,843.590027 
	C949.594543,845.848450 950.881531,849.263062 949.833191,852.926025 
	C949.162415,855.269836 947.075439,857.429504 945.129211,859.093933 
	C944.156616,859.925659 941.799866,860.066589 940.539185,859.490845 
	C926.996704,853.306091 913.590332,846.823853 900.063843,840.603333 
	C879.441956,831.119751 858.712524,821.869324 838.110962,812.342163 
	C825.812561,806.654785 813.680298,800.608887 801.452332,794.768066 
	C798.657349,793.433044 795.775574,792.279663 792.577209,791.001221 
z"/>
<path fill="#6B97FB" opacity="1.000000" stroke="none" 
	d="
M1088.822021,674.978455 
	C1082.986694,676.253540 1083.162964,676.332886 1086.127686,680.466248 
	C1091.878906,688.484314 1097.307739,696.736206 1102.743164,704.975037 
	C1103.509155,706.136108 1103.561157,707.768188 1103.943481,709.181702 
	C1095.065674,711.500610 1092.839111,710.594910 1088.205444,703.049133 
	C1083.812866,695.895935 1079.618286,688.601318 1074.818237,681.731018 
	C1073.477051,679.811340 1070.357422,678.265686 1067.956177,678.116638 
	C1060.515747,677.654724 1053.028564,677.947815 1044.889160,677.947815 
	C1044.889160,688.708069 1044.889160,699.087158 1044.889160,709.732727 
	C1041.447144,709.732727 1038.675415,709.732727 1035.472656,709.732727 
	C1035.472656,682.403809 1035.472656,655.035767 1035.472656,627.340454 
	C1036.097656,627.195190 1036.860596,626.863831 1037.623779,626.863281 
	C1051.283447,626.854309 1064.945679,626.731384 1078.601929,626.959106 
	C1088.594360,627.125732 1096.124756,631.725281 1100.386841,640.913696 
	C1106.465698,654.018738 1101.727905,669.352478 1088.822021,674.978455 
M1044.776367,645.530518 
	C1044.776367,653.147156 1044.776367,660.763733 1044.776367,669.488892 
	C1057.380371,668.923523 1069.487427,668.896179 1081.467896,667.651184 
	C1088.749268,666.894531 1092.964600,660.830750 1093.223145,653.608643 
	C1093.516235,645.414246 1089.645508,638.205322 1082.262573,637.298889 
	C1070.022095,635.795959 1057.582642,635.913208 1044.775879,635.327271 
	C1044.775879,639.261047 1044.775879,641.900513 1044.776367,645.530518 
z"/>
<path fill="#6C98FB" opacity="1.000000" stroke="none" 
	d="
M1036.234985,507.293884 
	C1041.739990,500.695038 1049.192017,499.564819 1056.633423,499.096283 
	C1063.009155,498.694885 1069.465454,498.939117 1075.847168,499.418091 
	C1085.299683,500.127472 1095.375977,512.495544 1094.796997,522.201965 
	C1087.863281,524.166504 1087.024170,523.506714 1083.740845,517.750854 
	C1082.199219,515.048401 1079.549927,512.295837 1076.749634,511.116547 
	C1066.857422,506.950500 1056.433716,505.829956 1046.850464,511.426849 
	C1043.874023,513.165100 1042.098145,517.932617 1041.018188,521.672974 
	C1039.913818,525.497681 1043.456299,526.678101 1046.401489,528.620789 
	C1052.595703,532.706543 1059.339355,535.628418 1066.330322,536.059814 
	C1075.873413,536.648621 1083.228516,541.745178 1091.285034,545.457520 
	C1093.096802,546.292297 1094.381714,548.609436 1095.535034,550.475464 
	C1100.752563,558.916931 1098.410889,567.171387 1093.327393,574.313049 
	C1090.864380,577.773071 1086.152100,580.216553 1081.957275,581.748169 
	C1069.990234,586.117432 1057.708008,585.813110 1045.737915,581.617249 
	C1038.034546,578.917053 1032.823608,573.549438 1029.912354,565.564087 
	C1027.055298,557.727478 1026.590210,557.893677 1035.090942,557.997498 
	C1036.079590,558.009583 1037.067505,558.083740 1038.013306,558.127136 
	C1040.900391,568.850403 1047.270142,574.084656 1062.433960,574.992615 
	C1068.969238,575.383850 1075.245972,574.572571 1081.235474,571.471741 
	C1086.197144,568.903137 1088.047729,564.533630 1087.929443,559.718445 
	C1087.823242,555.396057 1084.695312,552.285522 1080.380981,550.957092 
	C1072.610962,548.564514 1064.750732,546.449585 1057.042725,543.875732 
	C1051.173584,541.915833 1044.907349,540.304565 1039.830322,536.988037 
	C1029.199097,530.043213 1028.035645,518.195496 1036.234985,507.293884 
z"/>
<path fill="#6A96FB" opacity="1.000000" stroke="none" 
	d="
M1219.714111,562.318237 
	C1214.828125,549.121643 1220.251587,532.569092 1229.665527,525.030151 
	C1240.686646,516.204102 1254.600708,517.218140 1271.775635,528.238159 
	C1271.775635,522.171082 1271.775757,516.781006 1271.775757,511.390869 
	C1271.775757,506.104156 1271.775635,500.817413 1271.775635,495.203552 
	C1274.999146,495.203552 1277.713745,495.203552 1280.740723,495.203552 
	C1280.740723,524.322327 1280.740723,553.214539 1280.740723,582.551025 
	C1277.754883,582.551025 1274.718506,582.551025 1271.405762,582.551025 
	C1271.119385,581.137085 1270.809937,579.608948 1270.469604,577.928101 
	C1265.469116,579.717041 1260.689941,581.187622 1256.103394,583.116211 
	C1245.726807,587.479492 1237.105103,583.277222 1229.182495,577.347717 
	C1224.443359,573.800842 1220.795776,568.959534 1219.714111,562.318237 
M1257.287476,574.236206 
	C1270.921021,568.962280 1276.358887,552.625488 1269.093994,538.765869 
	C1262.135132,525.490112 1242.687866,523.657959 1233.403687,535.403503 
	C1227.049316,543.442383 1226.381958,555.759949 1231.800415,564.990601 
	C1236.697998,573.333923 1244.994873,576.515259 1257.287476,574.236206 
z"/>
<path fill="#6C98FB" opacity="1.000000" stroke="none" 
	d="
M1112.914185,673.002625 
	C1116.143066,655.593201 1128.212891,645.835999 1144.557861,645.838074 
	C1152.912231,645.839111 1158.583862,649.926697 1164.892822,654.883545 
	C1165.049927,652.168823 1165.178589,649.946106 1165.346558,647.044373 
	C1168.568848,647.044373 1171.668335,647.044373 1175.254883,647.539551 
	C1175.708496,668.649475 1175.674927,689.264221 1175.641357,709.879028 
	C1172.345581,709.879028 1169.049683,709.879028 1165.509521,709.879028 
	C1165.242676,708.155457 1165.023560,706.740051 1164.629639,704.195801 
	C1151.174561,712.528015 1137.700928,715.642517 1124.530518,704.947144 
	C1117.884888,699.550232 1113.760742,692.570740 1113.135742,683.019897 
	C1113.085693,679.143066 1112.999878,676.072815 1112.914185,673.002625 
M1166.083984,684.011292 
	C1166.153687,681.348145 1166.359497,678.680298 1166.269409,676.022583 
	C1165.903320,665.232300 1159.078735,656.680176 1149.677002,655.094116 
	C1138.104614,653.141846 1129.011597,657.980713 1124.569580,668.455017 
	C1119.151489,681.230896 1125.275391,696.899841 1137.306396,701.043945 
	C1150.410767,705.557617 1161.988403,699.035950 1166.083984,684.011292 
z"/>
<path fill="#FEFFFF" opacity="1.000000" stroke="none" 
	d="
M753.993896,335.587585 
	C750.257019,334.412506 747.299377,334.850647 744.327515,338.160706 
	C735.290161,348.226654 725.914368,357.988831 716.369751,368.025543 
	C716.893250,365.383698 717.105957,362.170288 718.666565,359.872375 
	C722.096619,354.822083 725.993774,350.041779 730.083313,345.495880 
	C740.849915,333.527985 751.739868,321.668060 762.743591,309.917633 
	C768.593750,303.670471 774.887329,297.840118 780.790405,291.640381 
	C787.740173,284.341248 794.400635,276.766724 801.341614,269.458893 
	C807.579529,262.891357 814.061035,256.555847 820.362732,250.047852 
	C822.317200,248.029297 823.938232,245.689377 825.876770,243.653534 
	C840.286011,228.520905 854.852661,213.536331 869.138672,198.288605 
	C880.938721,185.694214 892.300476,172.689575 904.080627,160.076050 
	C915.849243,147.474777 927.995178,135.226334 939.794189,122.652901 
	C952.147034,109.489258 964.255188,96.096252 976.542175,82.870331 
	C978.677429,80.571983 981.169434,78.605057 983.496643,76.485046 
	C984.007141,76.967834 984.517700,77.450630 985.028198,77.933426 
	C982.845764,80.804596 980.883545,83.880280 978.441528,86.510490 
	C969.314209,96.341110 960.039429,106.034950 950.800964,115.762138 
	C944.306946,122.599701 937.723206,129.353043 931.286011,136.243484 
	C923.012451,145.099625 914.857971,154.066986 906.627380,162.963562 
	C902.244507,167.701187 897.837280,172.417114 893.392639,177.096863 
	C880.229980,190.955856 867.029114,204.778671 853.873718,218.644608 
	C849.531311,223.221619 845.279907,227.885025 840.992371,232.513977 
	C840.427917,233.123413 839.549438,233.690262 839.400757,234.399353 
	C837.130005,245.226562 827.354797,250.351776 821.093933,258.060120 
	C812.347229,268.829010 802.303833,278.545929 792.797546,288.696381 
	C782.647156,299.534637 772.492310,310.368896 762.294739,321.162720 
	C760.935913,322.600983 759.378967,323.875519 757.801819,325.079132 
	C754.391113,327.682007 752.307922,330.719513 753.993896,335.587585 
z"/>
<path fill="#6C98FB" opacity="1.000000" stroke="none" 
	d="
M1250.459961,655.020081 
	C1248.008789,655.680115 1245.798706,656.016052 1244.047974,657.096497 
	C1242.435547,658.091492 1240.212280,659.896118 1240.224365,661.327515 
	C1240.245850,663.858826 1241.421143,666.584839 1242.787354,668.816772 
	C1243.508179,669.994263 1245.585693,670.585999 1247.164062,670.950562 
	C1253.461670,672.404846 1259.782593,673.778870 1266.135132,674.968323 
	C1272.976074,676.249207 1277.840576,680.892822 1281.039917,686.114319 
	C1284.557007,691.854248 1279.848022,704.108948 1273.787720,707.445129 
	C1261.591064,714.159668 1242.705811,714.186218 1232.644897,701.935791 
	C1230.543213,699.376709 1229.273193,695.987793 1228.196167,692.787415 
	C1227.517090,690.769836 1228.028198,689.353088 1231.283569,689.521118 
	C1236.146729,689.772156 1238.539917,691.516174 1240.793823,695.987915 
	C1242.267212,698.910767 1246.725586,700.803467 1250.236206,702.118713 
	C1256.135132,704.328796 1261.990234,702.718628 1267.384277,699.880066 
	C1270.445435,698.269165 1272.115234,695.340515 1270.927368,691.994812 
	C1270.153442,689.815247 1268.473877,687.110413 1266.531494,686.350891 
	C1260.645386,684.049438 1254.352051,682.813293 1248.374268,680.715088 
	C1243.516602,679.009949 1238.587769,677.148560 1234.219360,674.488037 
	C1226.634521,669.868774 1229.455688,652.991455 1238.442871,648.980469 
	C1249.697754,643.957336 1260.471924,645.365417 1271.333374,649.405334 
	C1276.020996,651.148865 1279.202148,658.234375 1278.530273,664.638733 
	C1273.969116,665.172424 1269.973999,666.026184 1267.302979,660.012817 
	C1266.156128,657.430786 1261.268311,656.200806 1257.846313,655.054138 
	C1255.761597,654.355652 1253.231445,654.986755 1250.459961,655.020081 
z"/>
<path fill="#6B97FB" opacity="1.000000" stroke="none" 
	d="
M1322.444702,565.243896 
	C1327.370972,552.870056 1332.088745,540.824524 1336.811035,528.780762 
	C1336.930664,528.475403 1337.160400,528.205261 1337.240356,527.893433 
	C1337.843506,525.544434 1338.381592,523.177490 1339.054688,520.849304 
	C1339.147095,520.529358 1339.868530,520.206665 1340.303833,520.199646 
	C1343.615356,520.145752 1346.927979,520.170105 1351.254639,520.170105 
	C1349.589966,524.606812 1348.111206,528.689026 1346.528687,532.730652 
	C1344.591187,537.678284 1342.733276,542.667603 1340.536621,547.500610 
	C1337.956177,553.178284 1334.747070,558.581543 1332.348633,564.328369 
	C1327.951416,574.865112 1323.973022,585.576111 1319.765503,596.192993 
	C1318.629395,599.059631 1317.619995,602.063171 1315.935791,604.593506 
	C1314.922241,606.116394 1312.843506,607.347961 1311.017090,607.804260 
	C1308.827393,608.351379 1306.396851,607.933411 1303.403931,607.933411 
	C1305.506592,602.816650 1306.752563,597.579468 1309.571777,593.404785 
	C1314.720459,585.780640 1313.925537,579.036499 1310.230591,570.979980 
	C1302.661743,554.476257 1296.173218,537.477173 1289.247070,520.699341 
	C1289.690918,520.421204 1289.938477,520.135803 1290.203003,520.119080 
	C1299.662354,519.522034 1299.655884,519.528198 1303.166626,528.444641 
	C1308.193848,541.212280 1313.226074,553.977966 1318.281128,566.734619 
	C1318.577515,567.482605 1319.096558,568.142517 1319.887451,569.476990 
	C1320.835327,567.901672 1321.536011,566.737000 1322.444702,565.243896 
z"/>
<path fill="#6895FB" opacity="1.000000" stroke="none" 
	d="
M1160.106567,534.006592 
	C1160.109375,541.661865 1160.197754,548.820068 1160.094727,555.975525 
	C1159.939331,566.762451 1167.425171,575.413574 1177.563721,575.307861 
	C1187.013306,575.209412 1197.052124,565.767761 1196.902344,555.379456 
	C1196.758423,545.395081 1196.863770,535.406921 1196.884277,525.420471 
	C1196.887695,523.797302 1197.019409,522.174438 1197.104004,520.278687 
	C1200.119263,520.278687 1202.843140,520.278687 1205.851807,520.278687 
	C1205.851807,541.104980 1205.851807,561.667908 1205.851807,582.610718 
	C1202.719727,582.610718 1199.666626,582.610718 1196.284790,582.610718 
	C1196.126465,580.652893 1195.969849,578.717102 1195.796509,576.574341 
	C1191.478149,578.761536 1187.169800,580.806763 1182.991333,583.089661 
	C1175.359253,587.259399 1168.359497,584.198059 1162.153687,580.384460 
	C1154.437866,575.642761 1150.490845,568.319092 1150.773315,558.741882 
	C1151.145874,546.113037 1150.864868,533.464905 1150.864868,520.407715 
	C1153.806763,520.407715 1156.530273,520.407715 1160.106445,520.407715 
	C1160.106445,524.683289 1160.106445,529.095764 1160.106567,534.006592 
z"/>
<path fill="#FEFFFF" opacity="1.000000" stroke="none" 
	d="
M560.237549,526.262695 
	C578.190674,507.305786 595.934143,488.636902 613.575073,469.871521 
	C619.822998,463.225311 625.719116,456.246857 632.021545,449.654999 
	C633.229248,448.391815 635.586609,448.227783 637.413513,447.556671 
	C637.518921,449.864319 637.747131,452.177063 637.651611,454.476379 
	C637.624390,455.130707 636.684631,455.773773 636.113708,456.374939 
	C623.295593,469.871765 610.431519,483.325287 597.656799,496.863098 
	C582.266296,513.172852 566.847656,529.458496 551.661865,545.957581 
	C546.740845,551.304199 542.019714,556.232727 535.379944,559.998535 
	C529.196350,563.505676 525.052490,570.587952 519.964111,576.053101 
	C513.855591,582.613708 507.720978,589.150574 501.525513,595.628723 
	C500.907928,596.274475 499.789856,596.441528 497.723907,596.131653 
	C498.484833,594.253113 498.785583,591.944153 500.077850,590.562622 
	C513.020081,576.725952 526.177551,563.090942 539.163940,549.295166 
	C546.215149,541.804504 553.053284,534.113464 560.237549,526.262695 
z"/>
<path fill="#6895FB" opacity="1.000000" stroke="none" 
	d="
M1126.007324,500.317078 
	C1126.011353,505.780396 1126.163940,510.784210 1125.959839,515.773438 
	C1125.823242,519.109741 1127.159424,520.219055 1130.356445,520.030212 
	C1133.649292,519.835632 1136.962646,519.987000 1140.611328,519.987000 
	C1140.611328,522.949951 1140.611328,525.540039 1140.611328,528.819458 
	C1136.209351,528.819458 1131.661865,528.819458 1126.717651,528.819458 
	C1126.717651,547.079468 1126.717651,564.665344 1126.717651,582.618774 
	C1123.452148,582.618774 1120.570190,582.618774 1117.104004,582.618774 
	C1117.104004,564.624817 1117.104004,546.728516 1117.104004,528.179932 
	C1112.309326,528.179932 1108.067993,528.179932 1103.514038,528.179932 
	C1103.514038,525.285278 1103.514038,523.045288 1103.514038,520.189575 
	C1107.776001,520.189575 1112.018188,520.189575 1116.878418,520.189575 
	C1116.878418,512.381226 1116.878418,505.157104 1116.878418,497.302521 
	C1120.402222,498.293274 1124.229614,494.496216 1126.007324,500.317078 
z"/>
<path fill="#6593FB" opacity="1.000000" stroke="none" 
	d="
M1222.824219,654.716614 
	C1218.165039,655.357727 1213.505737,655.998840 1208.195190,656.729614 
	C1208.195190,674.009094 1208.195190,691.729004 1208.195190,709.720337 
	C1204.990356,709.720337 1202.384155,709.720337 1199.040771,709.720337 
	C1199.040771,691.794861 1199.040771,673.778870 1199.040771,655.232910 
	C1194.079712,655.232910 1189.827881,655.232910 1185.297852,655.232910 
	C1185.297852,652.296814 1185.297852,649.903076 1185.297852,647.000366 
	C1189.754517,647.000366 1194.010498,647.000366 1198.779907,647.000366 
	C1198.779907,639.426331 1198.779907,632.342712 1198.779907,624.806641 
	C1202.044067,624.806641 1204.777588,624.806641 1208.070190,624.806641 
	C1208.070190,632.198181 1208.070190,639.280518 1208.070190,647.087830 
	C1213.053711,647.087830 1217.494263,647.087830 1222.365723,647.590698 
	C1222.805786,650.301208 1222.814941,652.508911 1222.824219,654.716614 
z"/>
<path fill="#FEFEFF" opacity="1.000000" stroke="none" 
	d="
M1176.045898,709.869141 
	C1175.674927,689.264221 1175.708496,668.649475 1175.691895,647.577637 
	C1176.758667,648.642700 1178.826538,650.152405 1178.846558,651.688660 
	C1179.074341,669.249207 1179.065063,686.814575 1178.878174,704.376160 
	C1178.858643,706.212219 1177.296753,708.031921 1176.045898,709.869141 
z"/>
<path fill="#FEFEFF" opacity="1.000000" stroke="none" 
	d="
M1009.442505,763.929138 
	C1008.738892,760.606384 1008.394287,757.214600 1008.112000,753.411743 
	C1012.779724,755.642456 1013.344482,759.411438 1009.442505,763.929138 
z"/>
<path fill="#FEFEFF" opacity="1.000000" stroke="none" 
	d="
M1006.438599,688.929443 
	C1005.736023,685.606323 1005.392822,682.214539 1005.111816,678.411682 
	C1009.781250,680.643799 1010.345398,684.416809 1006.438599,688.929443 
z"/>
<path fill="#FEFEFF" opacity="1.000000" stroke="none" 
	d="
M1223.024658,654.999146 
	C1222.814941,652.508911 1222.805786,650.301208 1222.814209,647.681519 
	C1223.568237,647.245361 1224.716919,646.907043 1224.975830,647.246826 
	C1227.011841,649.917603 1226.091187,653.823486 1223.024658,654.999146 
z"/>
<path fill="#FEFEFF" opacity="1.000000" stroke="none" 
	d="
M1112.553101,673.072876 
	C1112.999878,676.072815 1113.085693,679.143066 1113.123047,682.607422 
	C1109.070068,680.898865 1108.771240,677.562012 1112.553101,673.072876 
z"/>
<path fill="#FEFFFF" opacity="1.000000" stroke="none" 
	d="
M713.836914,370.092438 
	C713.393250,371.395477 712.558777,372.708130 711.430603,374.207855 
	C711.906616,372.963959 712.676331,371.533020 713.836914,370.092438 
z"/>
<path fill="#F7FAFF" opacity="1.000000" stroke="none" 
	d="
M966.581299,800.932739 
	C966.470337,801.577209 966.018921,802.183716 965.030518,802.702087 
	C964.294556,801.971558 964.095642,801.329102 963.896729,800.686707 
	C963.953857,800.351990 964.107910,800.070251 964.564697,799.709595 
	C965.260498,800.016663 965.750610,800.455688 966.581299,800.932739 
z"/>
<path fill="#F7FAFF" opacity="1.000000" stroke="none" 
	d="
M959.397461,809.148315 
	C951.180725,818.276489 943.030396,827.466675 934.640930,836.433228 
	C933.836487,837.293030 931.263123,837.372742 929.983887,836.785095 
	C898.901184,822.506775 867.876648,808.101624 836.855347,793.689941 
	C822.101746,786.835876 807.376221,779.921448 792.268799,772.982422 
	C791.695496,771.165283 791.491272,769.400146 791.748413,767.251953 
	C793.162476,767.144653 794.163513,767.311951 795.060974,767.711731 
	C832.892761,784.564392 870.712952,801.443176 908.540833,818.304504 
	C916.895874,822.028625 925.236877,825.790710 933.688782,829.282410 
	C934.750610,829.721130 936.453857,828.607361 937.859863,828.212769 
	C937.365479,826.793335 937.134888,825.181091 936.286560,824.020203 
	C935.692139,823.206726 934.254883,823.009277 933.193909,822.536743 
	C901.740845,808.527039 870.305054,794.478210 838.827271,780.524292 
	C823.023560,773.518616 807.143250,766.685547 791.297607,759.774414 
	C791.170898,757.766174 791.044189,755.757874 791.356079,753.388306 
	C840.559204,774.664490 889.323242,796.302795 938.089783,817.935669 
	C939.608948,818.609619 941.126892,819.645142 942.693665,819.743530 
	C944.036682,819.827942 945.448975,818.809753 946.830627,818.279236 
	C946.207397,816.907104 945.730591,815.435608 944.896545,814.206604 
	C944.505798,813.630798 943.418701,813.538574 942.658936,813.200684 
	C915.171936,800.979126 887.693970,788.737122 860.198303,776.535095 
	C837.120422,766.293518 814.022217,756.097900 790.932983,745.881958 
	C790.700623,743.874146 790.468323,741.866333 790.324219,739.430359 
	C803.045715,744.525879 815.704163,749.992859 828.307556,755.583923 
	C868.590210,773.453491 908.839905,791.397705 949.164612,809.171692 
	C950.934265,809.951721 953.318237,809.337952 956.119751,809.186462 
	C957.681519,809.049133 958.539490,809.098755 959.397461,809.148315 
z"/>
<path fill="#FFFFFF" opacity="1.000000" stroke="none" 
	d="
M959.658203,808.976685 
	C958.539490,809.098755 957.681519,809.049133 956.395630,808.994751 
	C954.890320,807.349060 954.189819,804.874268 952.679260,804.191284 
	C927.371033,792.748901 901.959900,781.534363 876.575256,770.260864 
	C852.255066,759.460083 827.940186,748.647400 803.620972,737.844421 
	C781.283813,727.921936 758.942444,718.008972 736.609802,708.076477 
	C735.289246,707.489136 734.029297,706.765320 732.680359,706.073853 
	C734.300476,701.666443 736.724121,701.173767 740.543579,702.882996 
	C781.675537,721.289734 822.860962,739.577026 864.024963,757.912292 
	C895.464478,771.916260 926.888123,785.955872 958.347412,799.915344 
	C959.796082,800.558228 961.524353,800.570862 963.509583,800.781921 
	C964.095642,801.329102 964.294556,801.971558 964.765869,802.816895 
	C963.331909,804.948303 961.625427,806.876709 959.658203,808.976685 
z"/>
<path fill="#F7FAFF" opacity="1.000000" stroke="none" 
	d="
M737.491760,742.083374 
	C737.923523,743.556763 737.999268,744.978882 737.990112,746.831665 
	C727.772156,742.744019 717.639038,738.225647 707.385864,733.653687 
	C708.304443,730.355225 709.838135,729.845337 712.568726,731.098694 
	C720.714478,734.837463 728.940857,738.400391 737.491760,742.083374 
z"/>
<path fill="#F7FAFF" opacity="1.000000" stroke="none" 
	d="
M737.416382,728.543945 
	C737.898682,730.603577 738.012512,732.539185 738.042847,734.918701 
	C730.272583,732.103821 722.585938,728.844910 714.818726,725.551819 
	C716.800232,720.554810 719.470398,720.190918 723.501587,722.370667 
	C727.838989,724.716125 732.517944,726.430298 737.416382,728.543945 
z"/>
<path fill="#F7FAFF" opacity="1.000000" stroke="none" 
	d="
M738.101868,715.725952 
	C738.293762,717.714172 738.233765,719.441162 738.056580,721.582031 
	C733.260803,719.980103 728.582214,717.964417 723.678650,715.851746 
	C725.357788,711.678467 727.583679,710.087036 731.621033,712.448669 
	C733.606140,713.609924 735.768066,714.468994 738.101868,715.725952 
z"/>
<path fill="#5D91FF" opacity="1.000000" stroke="none" 
	d="
M790.861084,746.323364 
	C814.022217,756.097900 837.120422,766.293518 860.198303,776.535095 
	C887.693970,788.737122 915.171936,800.979126 942.658936,813.200684 
	C943.418701,813.538574 944.505798,813.630798 944.896545,814.206604 
	C945.730591,815.435608 946.207397,816.907104 946.830627,818.279236 
	C945.448975,818.809753 944.036682,819.827942 942.693665,819.743530 
	C941.126892,819.645142 939.608948,818.609619 938.089783,817.935669 
	C889.323242,796.302795 840.559204,774.664490 791.436523,752.960815 
	C790.981873,750.851379 790.885498,748.808044 790.861084,746.323364 
z"/>
<path fill="#5D91FF" opacity="1.000000" stroke="none" 
	d="
M791.224731,760.179443 
	C807.143250,766.685547 823.023560,773.518616 838.827271,780.524292 
	C870.305054,794.478210 901.740845,808.527039 933.193909,822.536743 
	C934.254883,823.009277 935.692139,823.206726 936.286560,824.020203 
	C937.134888,825.181091 937.365479,826.793335 937.859863,828.212769 
	C936.453857,828.607361 934.750610,829.721130 933.688782,829.282410 
	C925.236877,825.790710 916.895874,822.028625 908.540833,818.304504 
	C870.712952,801.443176 832.892761,784.564392 795.060974,767.711731 
	C794.163513,767.311951 793.162476,767.144653 791.795654,766.804443 
	C791.304993,764.688110 791.228394,762.636230 791.224731,760.179443 
z"/>
<path fill="#FEFEFF" opacity="1.000000" stroke="none" 
	d="
M1044.776123,645.035217 
	C1044.775879,641.900513 1044.775879,639.261047 1044.775879,635.327271 
	C1057.582642,635.913208 1070.022095,635.795959 1082.262573,637.298889 
	C1089.645508,638.205322 1093.516235,645.414246 1093.223145,653.608643 
	C1092.964600,660.830750 1088.749268,666.894531 1081.467896,667.651184 
	C1069.487427,668.896179 1057.380371,668.923523 1044.776367,669.488892 
	C1044.776367,660.763733 1044.776367,653.147156 1044.776123,645.035217 
z"/>
<path fill="#FDFDFF" opacity="1.000000" stroke="none" 
	d="
M1256.889160,574.346924 
	C1244.994873,576.515259 1236.697998,573.333923 1231.800415,564.990601 
	C1226.381958,555.759949 1227.049316,543.442383 1233.403687,535.403503 
	C1242.687866,523.657959 1262.135132,525.490112 1269.093994,538.765869 
	C1276.358887,552.625488 1270.921021,568.962280 1256.889160,574.346924 
z"/>
<path fill="#FDFDFF" opacity="1.000000" stroke="none" 
	d="
M1166.038208,684.448181 
	C1161.988403,699.035950 1150.410767,705.557617 1137.306396,701.043945 
	C1125.275391,696.899841 1119.151489,681.230896 1124.569580,668.455017 
	C1129.011597,657.980713 1138.104614,653.141846 1149.677002,655.094116 
	C1159.078735,656.680176 1165.903320,665.232300 1166.269409,676.022583 
	C1166.359497,678.680298 1166.153687,681.348145 1166.038208,684.448181 
z"/>
</svg>