<svg version="1.1" id="Layer_1" xmlns="http://www.w3.org/2000/svg" xmlns:xlink="http://www.w3.org/1999/xlink" x="0px" y="0px"
	 width="100%" viewBox="0 0 1920 1080" enable-background="new 0 0 1920 1080" xml:space="preserve">
<path fill="#FFFFFF" opacity="1.000000" stroke="none" 
	d="
M1141.000000,1081.000000 
	C760.666748,1081.000000 380.833466,1081.000000 1.000153,1081.000000 
	C1.000102,721.000122 1.000102,361.000275 1.000051,1.000298 
	C640.999756,1.000199 1280.999512,1.000199 1920.999512,1.000099 
	C1920.999634,360.999664 1920.999634,720.999329 1920.999756,1080.999512 
	C1661.166626,1081.000000 1401.333374,1081.000000 1141.000000,1081.000000 
M947.507874,659.384827 
	C948.043457,660.257385 948.578979,661.129944 949.110657,662.940002 
	C949.492310,670.845154 949.994446,678.746826 950.227722,686.656311 
	C950.592590,699.030579 950.731812,711.411255 951.055054,723.786926 
	C951.204895,729.526733 951.562866,735.261230 951.113586,741.012512 
	C950.354858,741.466003 949.596130,741.919495 948.132568,742.242371 
	C946.421509,741.478210 944.710510,740.713989 942.924744,739.353577 
	C942.258972,739.291199 941.593140,739.228882 940.210388,739.035278 
	C935.140259,736.682434 930.070129,734.329590 924.896973,731.208496 
	C923.372681,730.583008 921.848328,729.957581 919.636597,729.654297 
	C910.091064,725.429810 900.545532,721.205322 890.924866,716.281067 
	C888.496521,712.470581 888.133057,712.366943 885.304871,714.785706 
	C881.537048,713.142029 877.769226,711.498413 873.987305,709.125854 
	C872.104614,704.981812 870.559204,704.404175 867.298462,706.794189 
	C863.198425,704.819336 859.098389,702.844482 854.887756,700.222290 
	C853.361877,699.403931 852.694275,695.427063 849.298279,698.801208 
	C845.532593,697.155396 841.766907,695.509521 837.984192,693.152161 
	C835.699951,689.464111 834.338867,688.957397 831.291443,690.828003 
	C827.860962,689.211670 824.430481,687.595398 820.920227,685.273926 
	C818.722656,682.915649 816.821045,679.732361 812.142822,682.180359 
	C810.054260,681.238220 807.965759,680.296082 805.878235,678.615295 
	C804.211731,678.168335 802.545166,677.721436 800.158386,677.115540 
	C795.074585,674.828735 789.990784,672.541931 784.905640,669.596619 
	C784.227295,669.492737 783.548889,669.388855 782.146912,669.117615 
	C778.053162,667.211914 773.959412,665.306213 769.879700,662.660950 
	C768.881897,662.523804 767.884155,662.386658 766.165222,662.098572 
	C762.070557,660.177368 757.975891,658.256226 753.895874,655.652954 
	C753.206055,655.563171 752.516296,655.473389 751.087708,655.243774 
	C746.691895,653.254028 742.296143,651.264343 737.903076,648.609863 
	C737.221069,648.511353 736.539001,648.412842 735.132751,648.186401 
	C732.754639,647.110413 730.376587,646.034424 727.847351,644.228149 
	C727.008240,643.925110 726.169128,643.622070 724.651794,643.639832 
	C721.434265,642.177856 718.216675,640.715881 714.948242,638.589355 
	C714.258118,638.483215 713.567993,638.377014 712.158081,638.112549 
	C707.772034,636.061157 703.386047,634.009766 698.932800,631.310913 
	C698.380005,630.661194 697.827148,630.011414 697.274353,629.361694 
	C696.850769,629.870544 696.427124,630.379333 695.304199,630.798096 
	C691.503601,628.955811 687.703064,627.113525 683.883057,624.536926 
	C682.660645,622.428955 681.259277,621.001709 678.225708,623.091553 
	C676.817200,622.377808 675.408630,621.664062 673.998840,620.160767 
	C673.636353,618.365967 673.273865,616.571228 673.177490,614.162170 
	C673.896912,612.777161 674.616394,611.392212 676.077087,609.970215 
	C677.051392,607.615295 678.881775,605.257324 678.873352,602.905884 
	C678.711060,557.654968 678.270264,512.405212 678.024719,467.154449 
	C677.887329,441.844269 678.000000,416.532776 678.000000,391.221863 
	C678.000000,376.401672 678.031189,361.581299 677.961548,346.761444 
	C677.952637,344.859283 679.064392,342.067780 675.223938,341.073792 
	C675.200256,334.744812 675.160522,328.415802 675.155518,322.086823 
	C675.134766,295.602661 675.143433,269.118469 675.095337,242.634384 
	C675.084778,236.799973 672.259399,233.119659 666.868164,233.270859 
	C663.868530,233.354980 660.169800,234.764587 658.091309,236.867081 
	C649.455566,245.602676 641.154053,254.686249 633.033569,263.909515 
	C621.270813,277.269714 609.826294,290.909546 598.130249,304.329254 
	C593.747437,309.357849 590.949829,314.282135 591.028137,321.680603 
	C591.590332,374.790894 591.566162,427.907776 591.653625,481.022675 
	C591.772461,553.146057 591.824280,625.269531 591.908020,697.393005 
	C591.910950,699.890686 591.971130,702.388367 591.964050,704.885986 
	C591.953247,708.715698 594.117493,711.013733 597.347900,712.521851 
	C611.905029,719.317993 626.447021,726.147522 641.053589,732.835876 
	C644.605164,734.462097 648.380920,735.598511 652.257751,737.883301 
	C652.257751,748.661377 652.257751,759.439514 652.257751,770.795837 
	C662.653442,765.581360 672.894836,760.785889 682.754211,755.303223 
	C685.964172,753.518311 687.216980,753.850098 688.954651,756.664429 
	C691.535645,760.844604 694.405457,764.847107 697.166931,768.915283 
	C703.368896,778.051880 709.579834,787.182434 716.197754,796.919678 
	C716.197754,786.634766 716.197754,777.306030 716.902893,768.040833 
	C727.806213,773.084534 738.710205,778.126709 749.612610,783.172424 
	C780.427185,797.433716 811.247620,811.682495 842.052551,825.964600 
	C857.380127,833.070923 872.660156,840.279907 888.018433,847.318787 
	C889.629944,848.057312 891.710999,848.448608 893.427124,848.151428 
	C898.088562,847.344299 901.349304,844.587402 901.800842,839.667419 
	C902.245422,834.824402 899.178040,832.094971 895.134521,830.175720 
	C893.053284,829.187988 891.051086,828.033630 888.941895,826.916809 
	C894.474121,820.569397 899.384399,814.797363 904.448730,809.163757 
	C909.611755,803.420410 914.949158,797.834290 920.168762,792.141296 
	C926.862793,784.840271 933.480652,777.468994 940.208130,770.199097 
	C942.082886,768.173218 942.957397,765.905884 940.408813,764.373352 
	C939.248474,763.675598 936.271606,764.340149 935.192993,765.440125 
	C929.145508,771.608154 923.456543,778.126038 917.587280,784.470825 
	C908.104797,794.721680 898.577271,804.930847 888.663574,814.560181 
	C888.014709,814.244324 887.365906,813.928467 886.896790,812.928406 
	C889.774231,807.451050 884.977173,806.734741 881.930603,805.376404 
	C842.170349,787.649231 802.379700,769.989746 762.565674,752.383545 
	C746.771057,745.399048 730.899841,738.587952 714.794434,730.891235 
	C714.720703,728.912231 714.646973,726.933289 715.495728,724.973083 
	C716.110474,724.937866 716.725159,724.902588 718.050537,724.937927 
	C775.550598,750.463806 833.049683,775.991821 890.554016,801.507996 
	C892.919067,802.557373 895.589233,804.546570 897.446716,801.030579 
	C899.436646,797.263916 896.374634,796.095459 893.739319,794.900146 
	C883.889099,790.432251 874.060364,785.915527 864.174255,781.528198 
	C831.014282,766.812683 797.843872,752.120667 764.655640,737.468994 
	C747.914734,730.078308 731.126770,722.794067 714.072021,714.651978 
	C713.978943,712.258789 713.885864,709.865540 714.586365,707.611694 
	C715.526855,707.943298 716.495422,708.211670 717.403748,708.615601 
	C769.574097,731.815369 821.736145,755.033813 873.908386,778.229309 
	C883.036865,782.287781 892.202637,786.262695 901.359009,790.258301 
	C903.678650,791.270569 906.309143,792.608337 907.813416,789.394043 
	C909.423279,785.954163 906.665649,784.695007 904.153870,783.555481 
	C902.182251,782.661072 900.190674,781.810852 898.210876,780.934326 
	C865.781494,766.576721 833.342163,752.241516 800.926270,737.853455 
	C761.817444,720.494690 722.728027,703.092102 683.631348,685.705994 
	C671.041321,680.107239 658.454773,674.500793 645.800842,668.868652 
	C648.001587,663.798401 650.651550,662.707275 655.665039,664.988525 
	C687.182983,679.329956 718.836975,693.372620 750.467773,707.465332 
	C792.743347,726.300659 835.038025,745.093201 877.325989,763.900818 
	C888.583435,768.907532 899.836548,773.924194 911.113831,778.885803 
	C913.661743,780.006714 916.792908,781.827576 918.374878,778.071167 
	C919.763672,774.773804 916.795837,773.554993 914.255981,772.432495 
	C909.687134,770.413208 905.195007,768.220764 900.629822,766.192871 
	C861.375671,748.755981 822.111084,731.342468 782.852051,713.916443 
	C755.003113,701.555115 727.142822,689.219421 699.317688,676.804688 
	C685.500427,670.639771 671.751099,664.322632 657.987732,657.283203 
	C657.979309,656.491577 657.970947,655.699951 658.252075,654.288940 
	C659.822632,651.551758 661.774841,652.225952 664.162476,653.287903 
	C697.015015,667.899658 729.917969,682.398132 762.782715,696.982544 
	C802.800476,714.741333 842.789917,732.564087 882.800049,750.340088 
	C896.034790,756.219971 909.307556,762.014282 922.533875,767.913025 
	C924.860596,768.950623 927.464294,769.828979 928.271362,766.815308 
	C928.646606,765.414185 926.820557,763.045837 925.442078,761.665710 
	C924.220093,760.442322 922.258301,759.930115 920.585510,759.188721 
	C888.629395,745.024658 856.657410,730.896179 824.709595,716.713562 
	C777.090027,695.573730 729.482666,674.406128 681.881714,653.224487 
	C676.758911,650.944946 671.712219,648.494202 666.597412,646.107605 
	C670.396057,639.740784 671.057983,639.388306 675.421204,641.319824 
	C739.653442,669.754089 803.912170,698.128784 868.100281,726.662292 
	C897.792114,739.861267 927.324707,753.418274 956.978149,766.704224 
	C962.906860,769.360535 971.840759,765.569641 971.103027,757.734375 
	C970.480469,751.122559 970.999573,744.411926 970.750000,737.754883 
	C969.890747,714.835510 968.916016,691.920471 968.525574,668.524231 
	C968.231750,666.657837 967.937927,664.791382 967.389954,662.035400 
	C967.268860,656.354370 967.147766,650.673340 967.570068,644.483032 
	C967.259277,642.297302 966.948425,640.111511 966.395142,637.033325 
	C966.272461,631.353027 966.149780,625.672668 966.550842,619.536865 
	C966.148193,617.694458 965.745544,615.851990 965.082031,613.104370 
	C964.698792,600.844727 964.400085,588.581665 963.909607,576.326294 
	C963.373474,562.931763 962.537354,549.548828 962.051758,536.152832 
	C961.264648,514.441040 960.656860,492.722748 960.500000,470.569275 
	C960.229797,469.020905 959.959595,467.472534 959.419556,465.038849 
	C959.284546,459.024506 959.149536,453.010132 959.550049,446.516205 
	C959.259033,444.652496 958.968018,442.788788 958.417358,440.037140 
	C958.283020,434.023376 958.148682,428.009613 958.553650,421.521606 
	C958.309265,419.999603 958.064880,418.477600 957.659363,416.146118 
	C957.445984,415.177643 957.078369,414.214966 957.041992,413.239868 
	C956.329407,394.139648 955.417603,375.041779 955.114014,355.934387 
	C955.019470,349.983887 952.536926,346.562469 947.515198,344.467804 
	C913.762512,330.389038 880.005127,316.321136 846.220215,302.319824 
	C804.062317,284.848541 761.880005,267.436066 719.699829,250.018616 
	C710.689148,246.297852 701.747375,242.368729 692.569763,239.110458 
	C687.618774,237.352737 682.885742,239.831497 681.365173,243.773880 
	C679.835815,247.738922 681.514099,252.627457 685.636353,255.190308 
	C687.971985,256.642395 690.592224,257.660828 693.140198,258.743073 
	C707.494812,264.840118 721.864685,270.901062 736.232605,276.966766 
	C749.513611,282.573639 762.798706,288.170959 776.113953,294.493958 
	C777.130676,294.543610 778.147339,294.593262 779.903931,294.760559 
	C781.535522,295.504852 783.155518,296.275818 784.800537,296.989166 
	C794.864197,301.353058 804.933533,305.703888 815.076660,310.654449 
	C815.742920,310.712463 816.409119,310.770477 817.833740,310.937469 
	C837.250732,318.807831 856.707214,326.582520 876.072998,334.577057 
	C893.492737,341.768219 910.804688,349.220123 928.180359,356.518555 
	C937.024109,360.233246 936.888184,360.197205 937.026550,369.755798 
	C937.211121,382.506744 937.660950,395.253845 937.228760,408.167847 
	C934.863098,413.018524 935.776245,417.176819 939.812317,419.907745 
	C939.872437,423.605927 939.932556,427.304077 939.441895,431.500427 
	C939.299988,432.989716 939.158081,434.479004 938.725708,436.573059 
	C936.497742,439.316467 936.516296,441.320435 940.734009,442.915894 
	C940.817627,447.278656 940.901184,451.641449 940.446960,456.463654 
	C940.304138,457.632874 940.161316,458.802124 939.748535,460.590607 
	C940.107605,461.726471 940.466675,462.862335 940.955017,464.927429 
	C941.699341,479.925293 942.510254,494.920197 943.170410,509.921753 
	C943.924866,527.066833 944.576233,544.216736 945.196777,561.367249 
	C945.316528,564.677490 944.890869,568.010132 945.055115,571.315613 
	C945.629639,582.879578 946.352234,594.436096 946.559998,606.297607 
	C946.737427,606.872437 946.914917,607.447266 947.200256,608.762695 
	C947.170959,609.507751 947.141663,610.252808 946.361328,611.076233 
	C942.874573,614.078186 943.248657,616.178833 947.791504,618.909729 
	C947.856079,622.608032 947.920593,626.306335 947.434204,630.502258 
	C947.294006,631.992249 947.153748,633.482300 946.731750,635.625854 
	C945.952393,637.593872 944.910645,639.660950 948.665771,640.908630 
	C948.769470,645.607971 948.873108,650.307373 948.441467,655.468567 
	C948.305847,656.637878 948.170227,657.807251 947.507874,659.384827 
M883.003357,679.998169 
	C883.003357,679.998169 883.040527,679.935181 883.108093,680.631470 
	C884.749878,681.065308 886.391724,681.499207 888.752136,682.021912 
	C891.834778,683.349121 894.917358,684.676331 898.076843,686.716675 
	C899.809814,690.061279 902.339966,691.435059 906.752625,690.028259 
	C910.833740,692.012695 914.914795,693.997131 919.075684,696.693909 
	C921.265808,700.246399 922.868347,699.755737 923.945007,695.093628 
	C923.666504,687.395081 923.388000,679.696533 923.772278,671.918213 
	C927.558472,669.731262 925.602722,668.329956 923.021606,666.072388 
	C922.718933,656.713196 922.416260,647.354004 922.779663,637.861877 
	C924.554016,636.229248 924.699707,634.879517 922.034973,633.070923 
	C921.726379,622.379639 921.417786,611.688293 921.873596,600.877930 
	C922.562866,600.040894 923.865295,599.190308 923.847046,598.368958 
	C923.656250,589.782654 923.304504,581.198059 922.798950,572.624634 
	C922.764099,572.034180 921.142700,571.537231 920.127441,570.069275 
	C920.089661,562.712646 920.051880,555.356018 920.758972,547.864319 
	C924.631592,543.058044 923.882263,536.005066 919.146790,533.077454 
	C919.112000,528.715881 919.077209,524.354309 919.587524,519.444336 
	C919.370850,516.961365 919.154175,514.478333 918.938171,511.246124 
	C918.960266,510.497406 918.982361,509.748718 919.755371,508.903473 
	C923.247253,505.567780 922.972351,503.034546 918.393616,500.379913 
	C918.280457,494.583038 918.167358,488.786194 918.603760,482.423431 
	C918.730957,479.960114 918.858154,477.496796 919.067017,474.300903 
	C919.737854,471.395905 923.479675,468.083710 917.921204,465.122375 
	C917.627380,457.745544 917.333618,450.368744 917.560852,442.521057 
	C917.701538,441.359070 917.842224,440.197083 918.065369,438.320770 
	C918.703125,436.048828 922.516296,433.247009 916.956665,431.093750 
	C916.658264,421.728729 916.359924,412.363678 916.757263,402.914825 
	C920.210327,400.746704 919.740601,399.142456 915.987488,397.073761 
	C915.316040,389.075012 914.644592,381.076263 913.877014,372.334076 
	C912.806396,371.940338 911.735840,371.546600 909.961609,371.141998 
	C908.641174,370.743744 907.320801,370.345520 905.986450,369.185455 
	C903.772705,363.843994 899.169861,364.986755 894.256653,365.005951 
	C892.819153,364.386444 891.381714,363.766937 889.908142,362.387878 
	C887.148987,359.090149 883.038818,357.934906 880.341309,359.703674 
	C877.877747,358.513580 875.414185,357.323456 872.905640,355.443420 
	C871.770264,354.054657 870.768616,351.684753 868.456360,354.784760 
	C867.970581,354.501862 867.484802,354.218933 866.926270,353.266937 
	C864.826721,349.773621 864.489014,349.674866 862.246338,351.990906 
	C857.497559,349.981812 852.748779,347.972717 847.982239,345.211700 
	C846.638489,341.463348 844.112732,341.344391 840.297791,342.925232 
	C837.197876,341.600250 834.098022,340.275299 830.889832,338.270691 
	C829.200134,337.016510 827.607788,335.573029 825.761475,334.623383 
	C825.206421,334.337891 823.944214,335.427063 822.332764,335.695038 
	C818.513306,333.930573 814.693909,332.166107 810.738708,329.662903 
	C808.785828,327.960999 807.460999,323.856171 803.323059,327.706085 
	C798.881836,325.794495 794.440552,323.882904 789.924133,321.285339 
	C787.615356,317.953003 786.755005,317.716187 784.317017,319.726135 
	C780.544373,318.138214 776.771667,316.550323 772.918213,314.251434 
	C770.841431,310.612915 768.004028,309.130981 763.247925,310.982300 
	C761.147095,310.036377 759.046326,309.090485 756.907959,307.384155 
	C753.590576,305.698914 750.276794,304.006104 746.922729,302.397339 
	C746.870361,302.372162 746.321838,303.381134 745.351807,303.721649 
	C743.554138,302.852631 741.756409,301.983582 739.877136,300.362823 
	C738.806335,299.959595 737.735474,299.556366 735.961548,299.149628 
	C734.641052,298.753693 733.320496,298.357727 731.984314,297.229279 
	C730.158875,293.675751 729.159607,293.415222 726.388977,295.761139 
	C725.258911,295.165619 724.128906,294.570068 722.870789,293.254425 
	C721.802246,292.887299 720.733704,292.520172 718.962341,292.140900 
	C717.641541,291.747192 716.320801,291.353485 714.982361,290.207886 
	C712.812195,285.631897 708.694702,286.006317 703.934387,286.101135 
	C702.833557,285.880798 701.732666,285.660431 700.066345,285.326904 
	C700.066345,293.102051 700.066345,300.542572 699.378113,308.087280 
	C697.494202,310.243439 697.722595,310.834442 700.964111,312.932648 
	C701.258667,328.957397 701.553284,344.982117 701.125366,361.163605 
	C700.428894,362.399445 699.114502,363.643768 699.131348,364.869812 
	C699.305481,377.543030 699.650208,390.214996 700.136353,402.880035 
	C700.164734,403.619812 701.820923,404.297089 702.856934,405.930054 
	C702.898560,417.620361 702.940186,429.310638 702.239380,441.142456 
	C698.421143,447.016846 699.732178,453.256500 701.110168,459.429962 
	C701.262878,460.113831 702.806702,460.487213 703.847412,461.930206 
	C703.885925,469.289185 703.924438,476.648193 703.396179,484.599091 
	C703.620483,488.734497 703.844727,492.869934 704.065186,497.754425 
	C704.041504,498.502991 704.017883,499.251587 703.247864,500.134155 
	C699.419495,504.871887 700.089233,511.075592 704.805908,513.927368 
	C704.853943,522.288147 704.901978,530.648987 704.388062,539.602295 
	C704.264404,543.390137 704.140747,547.177979 703.994141,551.755676 
	C703.461975,553.271851 702.751465,554.751953 702.435791,556.311890 
	C701.828247,559.314941 701.117493,562.474976 705.077148,564.898560 
	C705.370300,572.199219 706.450806,579.575256 705.760925,586.781799 
	C704.860168,596.191040 706.989075,602.760193 717.117859,605.653564 
	C719.116394,606.420654 721.114929,607.187744 723.737488,608.000000 
	C724.491638,608.336060 725.245789,608.672119 726.139160,609.739258 
	C727.489929,610.132568 728.840698,610.525940 730.835571,610.911072 
	C731.565613,611.249817 732.295715,611.588562 733.066284,612.534973 
	C733.721619,612.668030 734.377014,612.801086 735.668701,613.006042 
	C736.445801,613.338928 737.222900,613.671753 738.078308,614.712402 
	C740.604858,617.986450 743.745728,619.811462 748.751709,619.021606 
	C751.834473,620.348572 754.917236,621.675537 758.078552,623.713074 
	C760.845459,625.087646 763.612305,626.462280 767.123413,627.804016 
	C771.080383,629.528015 775.037415,631.252014 779.083984,633.635925 
	C780.404846,634.059204 781.725708,634.482483 783.793701,634.967163 
	C786.531006,636.027222 789.268250,637.087280 792.110291,638.771606 
	C792.782654,639.164917 793.455078,639.558228 794.754578,639.997131 
	C795.503601,640.353271 796.252563,640.709473 797.075256,641.656128 
	C797.744995,641.715210 798.414734,641.774292 799.773499,641.944153 
	C801.190613,642.605408 802.607727,643.266663 804.112122,644.647583 
	C805.117859,645.080261 806.123535,645.512939 807.753357,645.938965 
	C808.168884,645.956543 808.584473,645.974121 809.076355,646.699402 
	C811.030212,649.495605 813.272217,651.583069 817.753784,650.022461 
	C821.502502,651.678772 825.251282,653.335083 829.075745,655.705688 
	C830.355591,658.331970 831.891235,660.275879 835.751648,658.030090 
	C839.833313,660.017334 843.914978,662.004578 848.272339,664.572754 
	C849.531189,665.020569 850.790100,665.468445 852.796265,665.974548 
	C855.533020,667.042053 858.269836,668.109558 861.114136,669.793335 
	C861.782837,670.180420 862.451538,670.567505 863.786682,671.025024 
	C865.191101,671.684875 866.595581,672.344788 868.068176,673.606812 
	C868.739380,673.684387 869.410645,673.762024 870.808411,673.961975 
	C873.872253,675.307007 876.936157,676.652100 880.109131,678.693970 
	C881.093811,679.114563 882.078430,679.535095 883.003357,679.998169 
M1105.915039,436.026947 
	C1105.648315,436.729919 1105.381592,437.432892 1105.100098,438.970032 
	C1105.821899,453.067139 1095.481201,452.125183 1086.306396,452.187653 
	C1086.306396,458.375397 1086.306396,463.960754 1086.306396,470.271667 
	C1091.621826,470.271667 1096.660156,470.271667 1102.104858,470.271667 
	C1102.104858,482.310913 1101.942505,493.625092 1102.156860,504.932129 
	C1102.324585,513.778259 1106.303101,520.611145 1113.890869,525.411560 
	C1123.562866,531.530640 1134.286621,529.856506 1144.780762,529.792480 
	C1145.456909,529.788391 1146.663940,527.924500 1146.700562,526.892883 
	C1146.894043,521.451294 1146.791260,515.999146 1146.791260,509.992737 
	C1142.803101,509.992737 1139.350220,510.083130 1135.903809,509.972351 
	C1130.152222,509.787537 1125.420776,506.589417 1125.072998,501.056030 
	C1124.452515,491.187653 1124.898438,481.252228 1124.898438,470.997742 
	C1130.558228,470.997742 1136.210815,471.199829 1141.829590,470.854340 
	C1143.218262,470.768890 1145.550537,468.991730 1145.645508,467.843109 
	C1146.065308,462.765961 1145.827026,457.634399 1145.827026,451.867432 
	C1138.396606,451.867432 1131.524536,451.867432 1124.142822,451.867432 
	C1124.142822,444.963684 1124.142822,438.715088 1124.142822,431.908386 
	C1119.336914,431.908386 1115.037231,432.129150 1110.772827,431.835754 
	C1107.589844,431.616730 1106.636230,433.120270 1105.915039,436.026947 
M1163.207031,505.810852 
	C1164.599243,519.661865 1177.330688,531.609314 1191.138794,531.998718 
	C1200.448730,532.261292 1209.104736,530.439087 1216.466064,524.233948 
	C1217.482178,523.377380 1218.996704,523.112305 1219.249634,523.006104 
	C1221.428345,525.533752 1222.782959,528.612366 1224.582520,528.899109 
	C1229.229492,529.639771 1234.072998,529.147278 1238.883179,529.147278 
	C1238.883179,503.055237 1238.883179,477.688873 1238.883179,452.327179 
	C1231.422485,452.327179 1224.379395,452.327179 1217.003540,452.327179 
	C1217.003540,462.732788 1217.220459,472.715179 1216.922729,482.682251 
	C1216.742554,488.709839 1216.293701,494.829651 1215.006836,500.697784 
	C1213.503906,507.551453 1205.916382,512.445557 1198.910889,512.090515 
	C1191.516846,511.715729 1186.479492,507.431549 1185.792358,499.134247 
	C1184.942749,488.878174 1185.171509,478.530457 1185.005249,468.221161 
	C1184.920288,462.949921 1184.990234,457.676178 1184.990234,452.264313 
	C1177.270752,452.264313 1170.219604,452.264313 1162.888916,452.264313 
	C1162.888916,469.426422 1162.888916,486.220337 1162.476929,503.347260 
	C1162.705444,503.901154 1162.933838,504.455048 1163.207031,505.810852 
M1041.891968,423.862183 
	C1041.263428,423.898865 1040.635010,423.935577 1039.098877,424.033905 
	C1036.064941,424.018555 1033.031128,424.003174 1029.645874,423.510162 
	C1028.735718,423.814697 1027.825562,424.119202 1026.106567,424.686157 
	C1022.396240,425.508606 1018.542053,425.937408 1015.003723,427.230469 
	C1005.963562,430.534149 999.770813,436.861328 997.161133,446.215851 
	C991.765503,465.556122 1004.562378,479.377747 1020.744446,483.845001 
	C1029.414429,486.238373 1038.009644,488.981689 1046.465210,492.045502 
	C1052.686035,494.299561 1055.834351,503.253326 1048.631836,508.774414 
	C1040.163940,515.265503 1021.438293,513.087952 1018.853943,499.318237 
	C1018.635620,498.154999 1016.949341,496.438446 1015.889343,496.396790 
	C1009.111084,496.130402 1002.317261,496.261017 995.669678,496.261017 
	C993.239746,506.839050 1002.803345,522.788940 1014.996460,527.788574 
	C1024.240601,531.578979 1033.870972,533.026306 1043.587769,531.846863 
	C1054.474731,530.525269 1064.714722,527.145691 1071.798828,517.677673 
	C1081.081299,505.271515 1078.278564,485.660004 1064.910889,477.942261 
	C1057.173584,473.475128 1048.157593,471.217407 1039.705200,467.996399 
	C1034.615723,466.056854 1029.425781,464.358185 1024.425659,462.213837 
	C1020.295288,460.442505 1019.549011,456.722260 1019.840942,452.605225 
	C1020.126221,448.582581 1022.372620,445.923920 1026.018799,445.087494 
	C1029.668457,444.250214 1033.523926,444.133148 1037.296875,444.050659 
	C1044.065918,443.902649 1048.622192,447.321899 1051.266479,453.700867 
	C1051.943604,455.334473 1053.481934,457.732697 1054.748535,457.812469 
	C1061.334229,458.226990 1067.959961,458.005524 1075.072388,458.005524 
	C1075.240479,447.644165 1071.355713,439.750549 1064.330200,433.360229 
	C1058.078369,427.673645 1050.155151,425.723572 1041.891968,423.862183 
M1317.243042,455.859375 
	C1300.928101,444.916748 1270.310791,448.579041 1260.062256,470.881897 
	C1253.742554,484.634705 1254.246216,506.486359 1266.396729,519.665833 
	C1278.807983,533.127991 1303.176025,535.345886 1318.722778,524.611450 
	C1320.176514,523.607727 1321.622437,522.592957 1323.399902,521.354797 
	C1324.558350,524.549622 1325.502930,527.154663 1326.537109,530.006958 
	C1329.952271,530.006958 1333.304932,529.704163 1336.580688,530.076965 
	C1341.670898,530.656128 1343.094238,528.743896 1343.061157,523.675781 
	C1342.847046,491.015381 1342.955200,458.352905 1342.941650,425.691101 
	C1342.940918,423.927094 1342.797241,422.163177 1342.723145,420.472290 
	C1335.118530,420.472290 1328.067261,420.472290 1320.396606,420.472290 
	C1320.396606,432.541565 1320.396606,444.185211 1319.787109,455.930664 
	C1319.163086,455.975098 1318.539062,456.019531 1317.243042,455.859375 
M1021.325806,680.097595 
	C1024.039795,680.449402 1025.311523,679.483093 1025.113892,676.530457 
	C1024.902832,673.378174 1025.068115,670.200684 1025.068237,667.034241 
	C1025.068604,660.781494 1025.068359,654.528809 1025.068359,648.029358 
	C1029.928345,648.029358 1033.927490,647.877869 1037.902466,648.122192 
	C1039.085327,648.194946 1040.684204,649.095459 1041.270020,650.097534 
	C1046.601074,659.216125 1051.727661,668.454041 1056.986450,677.615540 
	C1057.518555,678.542542 1058.514282,679.859070 1059.316528,679.874512 
	C1067.833862,680.039062 1076.355713,679.976624 1085.821899,679.976624 
	C1078.435303,667.535339 1071.651855,656.109985 1064.865845,644.680115 
	C1082.953979,634.692444 1085.745728,621.027466 1083.612793,605.499207 
	C1081.097534,587.187134 1067.565796,578.194031 1049.352295,577.182800 
	C1034.564575,576.361755 1019.697083,576.965210 1004.864990,576.981628 
	C1003.938110,576.982666 1003.011597,577.372620 1002.155945,577.565613 
	C1002.155945,611.759766 1002.155945,645.680420 1002.155945,680.098694 
	C1008.440857,680.098694 1014.401245,680.098694 1021.325806,680.097595 
M1159.630981,604.880737 
	C1148.243286,599.475708 1136.399536,599.735962 1124.690186,603.003723 
	C1113.050171,606.252136 1106.340942,614.463562 1103.741699,626.988525 
	C1110.885132,626.988525 1117.492676,627.036560 1124.097534,626.927246 
	C1124.916138,626.913757 1126.133179,626.263855 1126.468506,625.571350 
	C1129.679443,618.939697 1135.488892,618.749573 1141.720947,618.877258 
	C1151.057373,619.068481 1155.560547,624.559814 1153.285889,634.010376 
	C1147.597534,634.010376 1141.795532,633.840637 1136.007935,634.056091 
	C1129.721802,634.290100 1123.321655,634.237610 1117.195679,635.446594 
	C1102.406860,638.365417 1095.036987,657.338013 1103.451294,669.891235 
	C1110.386475,680.237793 1127.238159,685.687500 1139.209351,681.203857 
	C1145.452881,678.865417 1151.517456,676.048889 1157.296265,673.603394 
	C1158.691772,675.666504 1159.886719,679.395142 1161.682373,679.711121 
	C1166.606323,680.577698 1171.782593,680.010010 1177.077271,680.010010 
	C1177.077271,663.414307 1177.315674,647.608398 1176.999878,631.813538 
	C1176.759766,619.801147 1171.142212,610.714661 1159.630981,604.880737 
M1370.438477,451.888916 
	C1365.701660,451.888916 1360.964722,451.888916 1355.407593,451.888916 
	C1356.874634,455.703949 1357.813477,458.664368 1359.117798,461.453827 
	C1368.416016,481.337433 1377.765869,501.196930 1387.147339,521.041321 
	C1391.559448,530.374268 1386.482910,538.749695 1376.067871,539.253052 
	C1372.794556,539.411194 1369.528809,539.726196 1366.196411,539.974121 
	C1366.196411,546.443176 1366.196411,552.484436 1366.196411,558.934082 
	C1370.729492,558.934082 1374.868896,558.815125 1378.999512,558.954956 
	C1395.589600,559.516541 1403.095581,550.518372 1407.705688,539.028076 
	C1415.278198,520.155518 1422.690796,501.218811 1430.179688,482.312653 
	C1434.120361,472.364227 1438.079712,462.423248 1442.165405,452.139557 
	C1433.553833,452.139557 1425.605225,452.139557 1417.510254,452.139557 
	C1412.639893,465.887756 1407.855103,479.469360 1402.980347,493.018585 
	C1402.575073,494.145416 1401.562866,495.053925 1400.832764,496.063934 
	C1399.884277,495.103210 1398.556641,494.310120 1398.046021,493.155670 
	C1393.224365,482.253845 1388.419067,471.341309 1383.858887,460.328308 
	C1380.392334,451.956085 1380.553711,451.889252 1370.438477,451.888916 
M1321.821289,641.594482 
	C1316.348145,639.322632 1310.959229,636.812012 1305.378662,634.845154 
	C1299.634521,632.820557 1293.588745,631.621216 1287.924316,629.419434 
	C1286.228638,628.760437 1284.362061,625.926880 1284.402832,624.131165 
	C1284.445923,622.238342 1286.277466,619.776489 1288.027344,618.648926 
	C1292.874878,615.525452 1302.933594,618.553833 1306.367798,623.564758 
	C1307.113770,624.653076 1308.526123,625.943665 1309.675171,625.986877 
	C1315.954956,626.223267 1322.248169,626.099548 1328.517212,626.099548 
	C1328.639404,616.412476 1322.799316,607.542358 1314.325073,604.198303 
	C1301.531006,599.149475 1288.716553,599.325806 1275.822388,604.013489 
	C1267.905884,606.891541 1263.276489,612.584351 1262.159302,620.617371 
	C1260.933105,629.435425 1263.459229,637.439758 1271.830322,641.708618 
	C1278.020630,644.865234 1284.913086,646.658752 1291.521973,648.975952 
	C1295.950806,650.528687 1300.683594,651.440796 1304.813232,653.552795 
	C1308.554199,655.465942 1308.681641,659.229309 1306.000854,662.221313 
	C1300.635498,668.209778 1287.708496,666.192139 1284.244019,658.931030 
	C1283.563599,657.504822 1282.209106,655.411926 1281.075684,655.353088 
	C1274.501587,655.011292 1267.900757,655.185974 1261.241699,655.185974 
	C1261.250000,665.114685 1265.381592,672.210693 1273.105713,676.758667 
	C1286.055786,684.383789 1299.820312,684.364807 1313.825562,679.835388 
	C1332.822632,673.691406 1335.030762,651.608582 1321.821289,641.594482 
M1191.734863,621.018066 
	C1195.980225,621.018066 1200.225586,621.018066 1205.091553,621.018066 
	C1205.091553,633.729431 1204.845459,645.541748 1205.177734,657.337646 
	C1205.400757,665.256226 1209.467407,671.351929 1215.938477,675.904358 
	C1223.320068,681.097473 1231.728638,681.168762 1240.213013,681.009460 
	C1250.747925,680.811584 1249.666016,682.772949 1249.713501,671.414856 
	C1249.756104,661.226562 1249.722534,661.226440 1239.535767,660.993164 
	C1232.589722,660.834167 1227.966675,657.582886 1227.572021,650.986267 
	C1226.989624,641.251160 1227.421631,631.455383 1227.421631,621.063538 
	C1233.445312,621.063538 1239.224976,620.997070 1245.002075,621.094910 
	C1247.449097,621.136292 1248.772583,620.385803 1248.732178,617.726135 
	C1248.659790,612.955200 1248.711670,608.182434 1248.711670,602.778198 
	C1240.980225,602.778198 1234.250977,602.778198 1226.993164,602.778198 
	C1226.993164,595.895081 1226.993164,589.646423 1226.993164,583.668091 
	C1226.158813,583.264160 1225.873047,583.009827 1225.580566,583.002014 
	C1222.586792,582.921936 1219.592163,582.844849 1216.597534,582.837891 
	C1208.646240,582.819458 1208.646240,582.833435 1208.000732,590.729492 
	C1207.234863,600.098267 1204.376831,602.719421 1194.826294,602.865295 
	C1193.238770,602.889526 1191.653198,603.036255 1189.319214,603.168884 
	C1189.847534,609.455566 1190.325317,615.142273 1191.734863,621.018066 
z"/>
<path fill="#A8D8FF" opacity="1.000000" stroke="none" 
	d="
M717.025146,604.926819 
	C706.989075,602.760193 704.860168,596.191040 705.760925,586.781799 
	C706.450806,579.575256 705.370300,572.199219 705.074158,563.986816 
	C705.063171,559.047668 705.055115,555.020386 705.320312,550.693359 
	C705.378967,546.599060 705.164490,542.804443 704.950012,539.009766 
	C704.901978,530.648987 704.853943,522.288147 704.780090,513.059814 
	C704.500916,508.128174 704.247559,504.064178 703.994263,500.000153 
	C704.017883,499.251587 704.041504,498.502991 704.336792,497.073792 
	C704.393250,492.264526 704.178101,488.135834 703.963013,484.007172 
	C703.924438,476.648193 703.885925,469.289185 703.856812,461.018463 
	C703.571472,453.738129 703.276672,447.369537 702.981873,441.000946 
	C702.940186,429.310638 702.898560,417.620361 702.865173,405.026794 
	C702.531555,389.751343 702.189636,375.379089 701.847839,361.006866 
	C701.553284,344.982117 701.258667,328.957397 700.966553,312.101929 
	C700.668030,310.175171 700.367188,309.079132 700.066345,307.983093 
	C700.066345,300.542572 700.066345,293.102051 700.066345,285.326904 
	C701.732666,285.660431 702.833557,285.880798 704.540161,286.398682 
	C708.430603,288.117401 711.715332,289.538574 715.000000,290.959747 
	C716.320801,291.353485 717.641541,291.747192 719.529480,292.405823 
	C721.064026,293.105316 722.031433,293.539917 722.998840,293.974518 
	C724.128906,294.570068 725.258911,295.165619 726.995239,296.014008 
	C729.067688,296.831848 730.533813,297.396820 732.000000,297.961792 
	C733.320496,298.357727 734.641052,298.753693 736.525757,299.411255 
	C738.046204,300.153412 739.002502,300.633972 739.958740,301.114532 
	C741.756409,301.983582 743.554138,302.852631 745.993958,303.989624 
	C750.072571,305.553284 753.509033,306.848907 756.945496,308.144562 
	C759.046326,309.090485 761.147095,310.036377 763.816284,311.306763 
	C767.256042,312.741638 770.127563,313.852020 772.999023,314.962402 
	C776.771667,316.550323 780.544373,318.138214 784.959106,319.996521 
	C787.067200,320.835052 788.533264,321.403168 789.999329,321.971313 
	C794.440552,323.882904 798.881836,325.794495 803.983032,327.981873 
	C806.720093,328.972351 808.797302,329.687012 810.874451,330.401642 
	C814.693909,332.166107 818.513306,333.930573 822.994690,335.942810 
	C826.103760,337.110504 828.550964,338.030426 830.998108,338.950348 
	C834.098022,340.275299 837.197876,341.600250 840.883301,343.199097 
	C843.645935,344.303192 845.822937,345.133423 848.000000,345.963654 
	C852.748779,347.972717 857.497559,349.981812 862.802490,352.307373 
	C864.572144,353.061249 865.785583,353.498657 866.999023,353.936035 
	C867.484802,354.218933 867.970581,354.501862 869.045776,354.998657 
	C870.740356,355.519501 871.845459,355.826416 872.950623,356.133362 
	C875.414185,357.323456 877.877747,358.513580 881.002686,359.949341 
	C884.424133,361.179169 887.184204,362.163300 889.944214,363.147430 
	C891.381714,363.766937 892.819153,364.386444 894.821533,365.326477 
	C898.924438,367.080444 902.462402,368.513885 906.000366,369.947296 
	C907.320801,370.345520 908.641174,370.743744 910.528564,371.405334 
	C912.054688,372.138306 913.013916,372.607910 913.973145,373.077515 
	C914.644592,381.076263 915.316040,389.075012 915.987976,397.953156 
	C916.012817,400.221252 916.037170,401.609955 916.061523,402.998657 
	C916.359924,412.363678 916.658264,421.728729 916.958374,431.984009 
	C916.967590,434.917236 916.975159,436.960144 916.736206,439.222717 
	C916.673157,440.625549 916.856506,441.808716 917.039856,442.991913 
	C917.333618,450.368744 917.627380,457.745544 917.924988,466.010681 
	C917.937683,469.601562 917.946594,472.304138 917.690308,475.285156 
	C917.634827,478.038788 917.844482,480.514069 918.054199,482.989319 
	C918.167358,488.786194 918.280457,494.583038 918.644775,501.147949 
	C918.932129,504.277344 918.968323,506.638672 919.004517,509.000000 
	C918.982361,509.748718 918.960266,510.497406 918.676514,511.902832 
	C918.624084,515.037292 918.833252,517.515015 919.042480,519.992737 
	C919.077209,524.354309 919.112000,528.715881 919.138428,533.968384 
	C919.424744,539.239319 919.719360,543.619324 920.014038,547.999390 
	C920.051880,555.356018 920.089661,562.712646 920.122681,570.962158 
	C920.448364,581.569031 920.778809,591.283020 921.109253,600.997009 
	C921.417786,611.688293 921.726379,622.379639 922.032166,633.935791 
	C922.057434,635.865356 922.085510,636.930054 922.113586,637.994812 
	C922.416260,647.354004 922.718933,656.713196 923.022461,666.952942 
	C923.052002,669.221680 923.080688,670.609802 923.109375,671.997986 
	C923.388000,679.696533 923.666504,687.395081 923.622681,695.570557 
	C921.865479,696.025574 920.430664,696.003601 918.995850,695.981567 
	C914.914795,693.997131 910.833740,692.012695 906.174561,689.707642 
	C903.064331,688.259216 900.532166,687.131409 898.000000,686.003540 
	C894.917358,684.676331 891.834778,683.349121 888.185181,681.706909 
	C886.092285,680.906250 884.566406,680.420715 883.040527,679.935181 
	C883.040527,679.935181 883.003357,679.998169 882.959717,679.642944 
	C881.944031,678.857483 880.972046,678.427307 880.000000,677.997131 
	C876.936157,676.652100 873.872253,675.307007 870.259399,673.667542 
	C869.140320,673.250244 868.570129,673.127441 868.000000,673.004639 
	C866.595581,672.344788 865.191101,671.684875 863.374268,670.685913 
	C862.310120,669.956848 861.658325,669.566956 861.006592,669.177063 
	C858.269836,668.109558 855.533020,667.042053 852.356079,665.637695 
	C850.609497,664.864563 849.303040,664.428223 847.996643,663.991821 
	C843.914978,662.004578 839.833313,660.017334 835.179443,657.713806 
	C832.738220,656.595459 830.869080,655.793396 829.000000,654.991333 
	C825.251282,653.335083 821.502502,651.678772 817.177124,649.703003 
	C814.066956,648.252930 811.533508,647.122314 809.000000,645.991699 
	C808.584473,645.974121 808.168884,645.956543 807.273865,645.662109 
	C805.871216,644.899475 804.947998,644.413635 804.024841,643.927856 
	C802.607727,643.266663 801.190613,642.605408 799.241455,641.660522 
	C798.140076,641.273132 797.570862,641.169373 797.001587,641.065613 
	C796.252563,640.709473 795.503601,640.353271 794.361084,639.669067 
	C793.313660,638.943054 792.659607,638.545227 792.005554,638.147400 
	C789.268250,637.087280 786.531006,636.027222 783.241821,634.688293 
	C781.458069,633.931641 780.226257,633.453857 778.994385,632.976074 
	C775.037415,631.252014 771.080383,629.528015 766.597900,627.493042 
	C763.381592,625.788879 760.690796,624.395691 758.000000,623.002502 
	C754.917236,621.675537 751.834473,620.348572 748.176819,618.702271 
	C744.401306,616.923523 741.200684,615.464050 738.000000,614.004517 
	C737.222900,613.671753 736.445801,613.338928 735.185181,612.724121 
	C734.143066,612.270508 733.584412,612.098877 733.025757,611.927246 
	C732.295715,611.588562 731.565613,611.249817 730.383911,610.578918 
	C728.621521,609.833862 727.310730,609.421021 726.000000,609.008118 
	C725.245789,608.672119 724.491638,608.336060 723.322876,607.637207 
	C720.947205,606.491882 718.986145,605.709351 717.025146,604.926819 
z"/>
<path fill="#598EFF" opacity="1.000000" stroke="none" 
	d="
M657.971008,658.074341 
	C671.751099,664.322632 685.500427,670.639771 699.317688,676.804688 
	C727.142822,689.219421 755.003113,701.555115 782.852051,713.916443 
	C822.111084,731.342468 861.375671,748.755981 900.629822,766.192871 
	C905.195007,768.220764 909.687134,770.413208 914.255981,772.432495 
	C916.795837,773.554993 919.763672,774.773804 918.374878,778.071167 
	C916.792908,781.827576 913.661743,780.006714 911.113831,778.885803 
	C899.836548,773.924194 888.583435,768.907532 877.325989,763.900818 
	C835.038025,745.093201 792.743347,726.300659 750.467773,707.465332 
	C718.836975,693.372620 687.182983,679.329956 655.665039,664.988525 
	C650.651550,662.707275 648.001587,663.798401 645.800842,668.868652 
	C658.454773,674.500793 671.041321,680.107239 683.631348,685.705994 
	C722.728027,703.092102 761.817444,720.494690 800.926270,737.853455 
	C833.342163,752.241516 865.781494,766.576721 898.210876,780.934326 
	C900.190674,781.810852 902.182251,782.661072 904.153870,783.555481 
	C906.665649,784.695007 909.423279,785.954163 907.813416,789.394043 
	C906.309143,792.608337 903.678650,791.270569 901.359009,790.258301 
	C892.202637,786.262695 883.036865,782.287781 873.908386,778.229309 
	C821.736145,755.033813 769.574097,731.815369 717.403748,708.615601 
	C716.495422,708.211670 715.526855,707.943298 713.944275,707.368164 
	C708.837524,704.968262 704.428223,702.687134 699.898254,700.677979 
	C684.258240,693.741516 668.576050,686.899902 652.623352,679.828552 
	C649.760193,678.492798 647.048828,677.579651 644.636108,676.159241 
	C640.105103,673.491577 637.713013,675.518860 635.488464,680.183472 
	C641.358826,682.565735 646.999146,684.854614 652.716919,687.589722 
	C652.666992,690.464783 652.539612,692.893677 652.075012,695.243591 
	C646.132996,692.651855 640.377747,690.421753 634.968262,687.542053 
	C630.120117,684.961304 627.349243,686.437561 624.979309,691.506653 
	C634.268250,695.415100 643.388306,699.252502 652.601685,703.533020 
	C652.554199,706.392700 652.413452,708.809143 651.961060,711.127625 
	C641.950867,706.711670 632.221252,702.461426 622.571533,698.036926 
	C619.439575,696.600891 617.678711,697.116394 616.864258,701.011536 
	C628.723938,706.483215 640.452332,711.894287 652.267944,717.748169 
	C652.254700,724.447388 652.154175,730.703735 652.053589,736.960144 
	C648.380920,735.598511 644.605164,734.462097 641.053589,732.835876 
	C626.447021,726.147522 611.905029,719.317993 597.347900,712.521851 
	C594.117493,711.013733 591.953247,708.715698 591.964050,704.885986 
	C591.971130,702.388367 591.910950,699.890686 591.908020,697.393005 
	C591.824280,625.269531 591.772461,553.146057 591.653625,481.022675 
	C591.566162,427.907776 591.590332,374.790894 591.028137,321.680603 
	C590.949829,314.282135 593.747437,309.357849 598.130249,304.329254 
	C609.826294,290.909546 621.270813,277.269714 633.033569,263.909515 
	C641.154053,254.686249 649.455566,245.602676 658.091309,236.867081 
	C660.169800,234.764587 663.868530,233.354980 666.868164,233.270859 
	C672.259399,233.119659 675.084778,236.799973 675.095337,242.634384 
	C675.143433,269.118469 675.134766,295.602661 675.155518,322.086823 
	C675.160522,328.415802 675.200256,334.744812 675.221558,341.992767 
	C675.258057,431.943573 675.296997,520.975403 675.335876,610.007263 
	C674.616394,611.392212 673.896912,612.777161 672.715088,614.635986 
	C664.868469,619.669006 658.039246,616.320312 657.373047,607.778320 
	C657.243835,606.121277 657.337097,604.446472 657.336426,602.779846 
	C657.291443,492.614044 657.247253,382.448242 657.203125,272.282440 
	C657.202332,270.414398 657.203003,268.546387 657.203003,265.736694 
	C655.632629,267.116791 654.972656,267.595795 654.433533,268.185333 
	C640.042725,283.922058 625.580872,299.595825 611.397156,315.517334 
	C609.759705,317.355469 608.980164,320.583527 608.983948,323.165405 
	C609.055969,371.659363 609.367859,420.152893 609.504822,468.646851 
	C609.697327,536.812683 609.787781,604.978821 609.921265,673.144836 
	C609.924683,674.893433 609.921631,676.642090 609.921631,678.390686 
	C610.398682,678.675903 610.875732,678.961060 611.352783,679.246277 
	C612.555542,677.737976 613.676086,676.154663 614.973511,674.732727 
	C630.020386,658.241333 645.209595,641.877625 660.084290,625.232666 
	C664.102234,620.736389 668.232056,618.726624 674.000122,620.950378 
	C675.408630,621.664062 676.817200,622.377808 678.777771,623.425415 
	C680.854065,624.263306 682.378235,624.767273 683.902466,625.271240 
	C687.703064,627.113525 691.503601,628.955811 695.934692,631.018982 
	C697.376831,631.479370 698.188416,631.718872 699.000000,631.958374 
	C703.386047,634.009766 707.772034,636.061157 712.702393,638.433533 
	C713.830872,638.920959 714.415039,639.087402 714.999146,639.253845 
	C718.216675,640.715881 721.434265,642.177856 725.123047,643.795898 
	C726.395691,644.287537 727.197083,644.622986 727.998474,644.958435 
	C730.376587,646.034424 732.754639,647.110413 735.678223,648.478271 
	C736.782593,648.938232 737.341492,649.106445 737.900330,649.274658 
	C742.296143,651.264343 746.691895,653.254028 751.651672,655.530029 
	C752.770813,655.989258 753.325989,656.162170 753.881165,656.335083 
	C757.975891,658.256226 762.070557,660.177368 766.733398,662.430969 
	C768.156311,662.975769 769.010986,663.188171 769.865723,663.400513 
	C773.959412,665.306213 778.053162,667.211914 782.686157,669.435059 
	C783.785889,669.920044 784.346497,670.087585 784.907043,670.255127 
	C789.990784,672.541931 795.074585,674.828735 800.742920,677.451294 
	C802.843994,678.309265 804.360596,678.831604 805.877197,679.353943 
	C807.965759,680.296082 810.054260,681.238220 812.728760,682.510742 
	C815.876526,683.887146 818.438232,684.933105 821.000000,685.979065 
	C824.430481,687.595398 827.860962,689.211670 831.923340,691.074768 
	C834.370605,692.168884 836.185913,693.016296 838.001221,693.863647 
	C841.766907,695.509521 845.532593,697.155396 849.934082,699.049072 
	C852.046021,699.821228 853.522217,700.345398 854.998352,700.869629 
	C859.098389,702.844482 863.198425,704.819336 867.931885,707.035767 
	C870.377380,708.136536 872.189392,708.995605 874.001404,709.854736 
	C877.769226,711.498413 881.537048,713.142029 885.944336,715.022827 
	C888.055847,715.833618 889.527954,716.407227 891.000000,716.980835 
	C900.545532,721.205322 910.091064,725.429810 920.112061,729.820679 
	C922.058350,730.650208 923.529175,731.313477 925.000000,731.976746 
	C930.070129,734.329590 935.140259,736.682434 940.728027,739.358032 
	C941.830261,739.770508 942.414856,739.860168 942.999451,739.949829 
	C944.710510,740.713989 946.421509,741.478210 948.735901,742.547607 
	C950.168274,742.234558 950.997314,741.616272 951.826416,740.998047 
	C951.562866,735.261230 951.204895,729.526733 951.055054,723.786926 
	C950.731812,711.411255 950.592590,699.030579 950.227722,686.656311 
	C949.994446,678.746826 949.492310,670.845154 949.179871,662.103638 
	C949.211426,660.522278 949.173767,659.777283 949.318726,658.778564 
	C949.326477,657.352051 949.151611,656.179382 948.976807,655.006714 
	C948.873108,650.307373 948.769470,645.607971 948.652466,640.064331 
	C948.534058,638.122253 948.429016,637.024536 948.480713,635.564636 
	C948.420044,633.469849 948.202576,631.737244 947.985168,630.004639 
	C947.920593,626.306335 947.856079,622.608032 947.778687,618.069153 
	C947.548035,615.151672 947.330200,613.074768 947.112366,610.997864 
	C947.141663,610.252808 947.170959,609.507751 947.310364,608.221130 
	C947.286499,607.118225 947.152527,606.556824 947.018616,605.995483 
	C946.352234,594.436096 945.629639,582.879578 945.055115,571.315613 
	C944.890869,568.010132 945.316528,564.677490 945.196777,561.367249 
	C944.576233,544.216736 943.924866,527.066833 943.170410,509.921753 
	C942.510254,494.920197 941.699341,479.925293 940.996582,464.075012 
	C941.076416,462.160461 941.114624,461.098297 941.336121,459.782074 
	C941.341187,458.353394 941.163025,457.178802 940.984863,456.004211 
	C940.901184,451.641449 940.817627,447.278656 940.721313,442.045776 
	C940.585754,439.761078 940.462830,438.346558 940.492554,436.568176 
	C940.427673,434.470306 940.210144,432.736298 939.992676,431.002258 
	C939.932556,427.304077 939.872437,423.605927 939.793335,419.052368 
	C939.437439,415.439728 939.100647,412.682495 939.010193,409.816223 
	C938.859436,409.112549 938.462341,408.517883 938.031982,407.929199 
	C937.998718,407.935120 937.996765,408.002594 937.996826,408.002594 
	C937.660950,395.253845 937.211121,382.506744 937.026550,369.755798 
	C936.888184,360.197205 937.024109,360.233246 928.180359,356.518555 
	C910.804688,349.220123 893.492737,341.768219 876.072998,334.577057 
	C856.707214,326.582520 837.250732,318.807831 817.295776,310.625580 
	C816.172241,310.228851 815.586609,310.143982 815.000977,310.059113 
	C804.933533,305.703888 794.864197,301.353058 784.800537,296.989166 
	C783.155518,296.275818 781.535522,295.504852 779.309021,294.456116 
	C777.836731,294.025299 776.959351,293.898895 776.081970,293.772491 
	C762.798706,288.170959 749.513611,282.573639 736.232605,276.966766 
	C721.864685,270.901062 707.494812,264.840118 693.140198,258.743073 
	C690.592224,257.660828 687.971985,256.642395 685.636353,255.190308 
	C681.514099,252.627457 679.835815,247.738922 681.365173,243.773880 
	C682.885742,239.831497 687.618774,237.352737 692.569763,239.110458 
	C701.747375,242.368729 710.689148,246.297852 719.699829,250.018616 
	C761.880005,267.436066 804.062317,284.848541 846.220215,302.319824 
	C880.005127,316.321136 913.762512,330.389038 947.515198,344.467804 
	C952.536926,346.562469 955.019470,349.983887 955.114014,355.934387 
	C955.417603,375.041779 956.329407,394.139648 957.041992,413.239868 
	C957.078369,414.214966 957.445984,415.177643 957.561218,416.833374 
	C957.646790,419.012360 957.830505,420.504120 958.014282,421.995850 
	C958.148682,428.009613 958.283020,434.023376 958.391602,440.857941 
	C958.582092,443.451080 958.798279,445.223450 959.014526,446.995789 
	C959.149536,453.010132 959.284546,459.024506 959.397949,465.837524 
	C959.575317,468.093170 959.774353,469.550201 959.973389,471.007202 
	C960.656860,492.722748 961.264648,514.441040 962.051758,536.152832 
	C962.537354,549.548828 963.373474,562.931763 963.909607,576.326294 
	C964.400085,588.581665 964.698792,600.844727 965.185791,613.951294 
	C965.535400,616.529663 965.781250,618.260986 966.027100,619.992371 
	C966.149780,625.672668 966.272461,631.353027 966.365723,637.874634 
	C966.566406,640.808044 966.796570,642.900208 967.026672,644.992310 
	C967.147766,650.673340 967.268860,656.354370 967.367859,662.858337 
	C967.558960,665.455444 967.772156,667.229614 967.985352,669.003784 
	C968.916016,691.920471 969.890747,714.835510 970.750000,737.754883 
	C970.999573,744.411926 970.480469,751.122559 971.103027,757.734375 
	C971.840759,765.569641 962.906860,769.360535 956.978149,766.704224 
	C927.324707,753.418274 897.792114,739.861267 868.100281,726.662292 
	C803.912170,698.128784 739.653442,669.754089 675.421204,641.319824 
	C671.057983,639.388306 670.396057,639.740784 666.597412,646.107605 
	C671.712219,648.494202 676.758911,650.944946 681.881714,653.224487 
	C729.482666,674.406128 777.090027,695.573730 824.709595,716.713562 
	C856.657410,730.896179 888.629395,745.024658 920.585510,759.188721 
	C922.258301,759.930115 924.220093,760.442322 925.442078,761.665710 
	C926.820557,763.045837 928.646606,765.414185 928.271362,766.815308 
	C927.464294,769.828979 924.860596,768.950623 922.533875,767.913025 
	C909.307556,762.014282 896.034790,756.219971 882.800049,750.340088 
	C842.789917,732.564087 802.800476,714.741333 762.782715,696.982544 
	C729.917969,682.398132 697.015015,667.899658 664.162476,653.287903 
	C661.774841,652.225952 659.822632,651.551758 657.817383,654.740112 
	C657.578735,656.152344 657.774902,657.113342 657.971008,658.074341 
z"/>
<path fill="#FEFEFF" opacity="1.000000" stroke="none" 
	d="
M673.999512,620.555542 
	C668.232056,618.726624 664.102234,620.736389 660.084290,625.232666 
	C645.209595,641.877625 630.020386,658.241333 614.973511,674.732727 
	C613.676086,676.154663 612.555542,677.737976 611.352783,679.246277 
	C610.875732,678.961060 610.398682,678.675903 609.921631,678.390686 
	C609.921631,676.642090 609.924683,674.893433 609.921265,673.144836 
	C609.787781,604.978821 609.697327,536.812683 609.504822,468.646851 
	C609.367859,420.152893 609.055969,371.659363 608.983948,323.165405 
	C608.980164,320.583527 609.759705,317.355469 611.397156,315.517334 
	C625.580872,299.595825 640.042725,283.922058 654.433533,268.185333 
	C654.972656,267.595795 655.632629,267.116791 657.203003,265.736694 
	C657.203003,268.546387 657.202332,270.414398 657.203125,272.282440 
	C657.247253,382.448242 657.291443,492.614044 657.336426,602.779846 
	C657.337097,604.446472 657.243835,606.121277 657.373047,607.778320 
	C658.039246,616.320312 664.868469,619.669006 672.582031,614.943115 
	C673.273865,616.571228 673.636353,618.365967 673.999512,620.555542 
M625.006226,325.191589 
	C625.302185,344.488403 625.712036,363.784302 625.872009,383.082245 
	C626.277893,432.032806 626.633484,480.983978 626.888672,529.935547 
	C627.056274,562.087646 627.014343,594.240906 627.065674,626.393616 
	C627.068420,628.120544 627.066040,629.847473 627.066040,631.574341 
	C627.528870,631.742981 627.991699,631.911682 628.454529,632.080322 
	C632.448730,627.751953 636.621094,623.569580 640.346802,619.021301 
	C641.778076,617.274048 642.955994,614.694092 642.958740,612.491882 
	C643.085083,511.202423 643.069641,409.912750 643.048157,308.623138 
	C643.047974,307.614014 642.747620,306.604950 642.375732,304.263062 
	C636.075317,311.574402 630.570862,317.962036 625.006226,325.191589 
z"/>
<path fill="#6693FB" opacity="1.000000" stroke="none" 
	d="
M1020.843750,680.098145 
	C1014.401245,680.098694 1008.440857,680.098694 1002.155945,680.098694 
	C1002.155945,645.680420 1002.155945,611.759766 1002.155945,577.565613 
	C1003.011597,577.372620 1003.938110,576.982666 1004.864990,576.981628 
	C1019.697083,576.965210 1034.564575,576.361755 1049.352295,577.182800 
	C1067.565796,578.194031 1081.097534,587.187134 1083.612793,605.499207 
	C1085.745728,621.027466 1082.953979,634.692444 1064.865845,644.680115 
	C1071.651855,656.109985 1078.435303,667.535339 1085.821899,679.976624 
	C1076.355713,679.976624 1067.833862,680.039062 1059.316528,679.874512 
	C1058.514282,679.859070 1057.518555,678.542542 1056.986450,677.615540 
	C1051.727661,668.454041 1046.601074,659.216125 1041.270020,650.097534 
	C1040.684204,649.095459 1039.085327,648.194946 1037.902466,648.122192 
	C1033.927490,647.877869 1029.928345,648.029358 1025.068359,648.029358 
	C1025.068359,654.528809 1025.068604,660.781494 1025.068237,667.034241 
	C1025.068115,670.200684 1024.902832,673.378174 1025.113892,676.530457 
	C1025.311523,679.483093 1024.039795,680.449402 1020.843750,680.098145 
M1050.018311,598.096619 
	C1041.814087,597.611145 1033.609985,597.125610 1025.301025,596.633911 
	C1025.301025,607.770264 1025.301025,617.807251 1025.301025,627.948547 
	C1026.660278,628.055420 1027.640015,628.202148 1028.619385,628.198059 
	C1034.440552,628.174072 1040.272827,628.323181 1046.080444,628.018066 
	C1054.322754,627.585022 1059.291382,622.879211 1060.526855,614.834534 
	C1061.697144,607.214844 1058.319824,601.499878 1050.018311,598.096619 
z"/>
<path fill="#6794FB" opacity="1.000000" stroke="none" 
	d="
M1320.396606,455.828827 
	C1320.396606,444.185211 1320.396606,432.541565 1320.396606,420.472290 
	C1328.067261,420.472290 1335.118530,420.472290 1342.723145,420.472290 
	C1342.797241,422.163177 1342.940918,423.927094 1342.941650,425.691101 
	C1342.955200,458.352905 1342.847046,491.015381 1343.061157,523.675781 
	C1343.094238,528.743896 1341.670898,530.656128 1336.580688,530.076965 
	C1333.304932,529.704163 1329.952271,530.006958 1326.537109,530.006958 
	C1325.502930,527.154663 1324.558350,524.549622 1323.399902,521.354797 
	C1321.622437,522.592957 1320.176514,523.607727 1318.722778,524.611450 
	C1303.176025,535.345886 1278.807983,533.127991 1266.396729,519.665833 
	C1254.246216,506.486359 1253.742554,484.634705 1260.062256,470.881897 
	C1270.310791,448.579041 1300.928101,444.916748 1317.732056,456.224915 
	C1318.884766,456.872375 1319.548340,457.154236 1320.212036,457.436096 
	C1320.273560,456.900360 1320.335083,456.364594 1320.396606,455.828827 
M1286.796997,473.170746 
	C1278.108276,480.594177 1276.097290,494.183350 1282.321411,503.414368 
	C1287.781616,511.512360 1300.334229,514.538635 1309.679565,510.010040 
	C1319.303467,505.346405 1323.628418,493.485596 1319.819458,482.598969 
	C1315.354858,469.838593 1299.293213,464.953522 1286.796997,473.170746 
z"/>
<path fill="#6895FB" opacity="1.000000" stroke="none" 
	d="
M1029.997192,423.987793 
	C1033.031128,424.003174 1036.064941,424.018555 1039.759155,424.216064 
	C1040.975708,424.365234 1041.532104,424.332306 1042.088379,424.299377 
	C1050.155151,425.723572 1058.078369,427.673645 1064.330200,433.360229 
	C1071.355713,439.750549 1075.240479,447.644165 1075.072388,458.005524 
	C1067.959961,458.005524 1061.334229,458.226990 1054.748535,457.812469 
	C1053.481934,457.732697 1051.943604,455.334473 1051.266479,453.700867 
	C1048.622192,447.321899 1044.065918,443.902649 1037.296875,444.050659 
	C1033.523926,444.133148 1029.668457,444.250214 1026.018799,445.087494 
	C1022.372620,445.923920 1020.126221,448.582581 1019.840942,452.605225 
	C1019.549011,456.722260 1020.295288,460.442505 1024.425659,462.213837 
	C1029.425781,464.358185 1034.615723,466.056854 1039.705200,467.996399 
	C1048.157593,471.217407 1057.173584,473.475128 1064.910889,477.942261 
	C1078.278564,485.660004 1081.081299,505.271515 1071.798828,517.677673 
	C1064.714722,527.145691 1054.474731,530.525269 1043.587769,531.846863 
	C1033.870972,533.026306 1024.240601,531.578979 1014.996460,527.788574 
	C1002.803345,522.788940 993.239746,506.839050 995.669678,496.261017 
	C1002.317261,496.261017 1009.111084,496.130402 1015.889343,496.396790 
	C1016.949341,496.438446 1018.635620,498.154999 1018.853943,499.318237 
	C1021.438293,513.087952 1040.163940,515.265503 1048.631836,508.774414 
	C1055.834351,503.253326 1052.686035,494.299561 1046.465210,492.045502 
	C1038.009644,488.981689 1029.414429,486.238373 1020.744446,483.845001 
	C1004.562378,479.377747 991.765503,465.556122 997.161133,446.215851 
	C999.770813,436.861328 1005.963562,430.534149 1015.003723,427.230469 
	C1018.542053,425.937408 1022.396240,425.508606 1026.825439,424.685181 
	C1028.361816,424.452057 1029.179565,424.219940 1029.997192,423.987793 
z"/>
<path fill="#241F48" opacity="1.000000" stroke="none" 
	d="
M652.272705,711.225647 
	C652.413452,708.809143 652.554199,706.392700 652.681641,703.089355 
	C652.583008,699.909241 652.497620,697.615845 652.412231,695.322510 
	C652.539612,692.893677 652.666992,690.464783 652.787170,687.135925 
	C652.823303,684.164673 652.866638,682.093384 652.909973,680.022156 
	C668.576050,686.899902 684.258240,693.741516 699.898254,700.677979 
	C704.428223,702.687134 708.837524,704.968262 713.547485,707.298523 
	C713.885864,709.865540 713.978943,712.258789 714.111938,715.507935 
	C714.250000,718.906921 714.348022,721.450073 714.389832,724.245117 
	C714.413513,724.649414 714.493347,724.801819 714.573242,724.954285 
	C714.646973,726.933289 714.720703,728.912231 714.847656,731.750244 
	C714.984680,734.997864 715.068359,737.386475 715.106262,740.087769 
	C715.117371,740.601685 715.174255,740.802856 715.154907,741.372375 
	C715.327881,743.590454 715.577026,745.440247 715.690186,747.789795 
	C715.768738,754.852173 715.983215,761.414795 716.197754,767.977356 
	C716.197754,777.306030 716.197754,786.634766 716.197754,796.919678 
	C709.579834,787.182434 703.368896,778.051880 697.166931,768.915283 
	C694.405457,764.847107 691.535645,760.844604 688.954651,756.664429 
	C687.216980,753.850098 685.964172,753.518311 682.754211,755.303223 
	C672.894836,760.785889 662.653442,765.581360 652.257751,770.795837 
	C652.257751,759.439514 652.257751,748.661377 652.155640,737.421753 
	C652.154175,730.703735 652.254700,724.447388 652.421143,717.394409 
	C652.415588,714.807129 652.344116,713.016357 652.272705,711.225647 
z"/>
<path fill="#5A8EFF" opacity="1.000000" stroke="none" 
	d="
M716.550293,768.009094 
	C715.983215,761.414795 715.768738,754.852173 716.102661,747.896851 
	C737.370239,757.031555 758.113647,766.506409 778.802612,776.098633 
	C810.818359,790.942261 842.779724,805.902954 874.803894,820.728210 
	C882.187805,824.146484 882.261902,823.986389 887.378418,817.166443 
	C888.118347,816.404785 888.593567,815.781250 889.068848,815.157715 
	C898.577271,804.930847 908.104797,794.721680 917.587280,784.470825 
	C923.456543,778.126038 929.145508,771.608154 935.192993,765.440125 
	C936.271606,764.340149 939.248474,763.675598 940.408813,764.373352 
	C942.957397,765.905884 942.082886,768.173218 940.208130,770.199097 
	C933.480652,777.468994 926.862793,784.840271 920.168762,792.141296 
	C914.949158,797.834290 909.611755,803.420410 904.448730,809.163757 
	C899.384399,814.797363 894.474121,820.569397 888.941895,826.916809 
	C891.051086,828.033630 893.053284,829.187988 895.134521,830.175720 
	C899.178040,832.094971 902.245422,834.824402 901.800842,839.667419 
	C901.349304,844.587402 898.088562,847.344299 893.427124,848.151428 
	C891.710999,848.448608 889.629944,848.057312 888.018433,847.318787 
	C872.660156,840.279907 857.380127,833.070923 842.052551,825.964600 
	C811.247620,811.682495 780.427185,797.433716 749.612610,783.172424 
	C738.710205,778.126709 727.806213,773.084534 716.550293,768.009094 
z"/>
<path fill="#6794FB" opacity="1.000000" stroke="none" 
	d="
M1160.007080,604.950928 
	C1171.142212,610.714661 1176.759766,619.801147 1176.999878,631.813538 
	C1177.315674,647.608398 1177.077271,663.414307 1177.077271,680.010010 
	C1171.782593,680.010010 1166.606323,680.577698 1161.682373,679.711121 
	C1159.886719,679.395142 1158.691772,675.666504 1157.296265,673.603394 
	C1151.517456,676.048889 1145.452881,678.865417 1139.209351,681.203857 
	C1127.238159,685.687500 1110.386475,680.237793 1103.451294,669.891235 
	C1095.036987,657.338013 1102.406860,638.365417 1117.195679,635.446594 
	C1123.321655,634.237610 1129.721802,634.290100 1136.007935,634.056091 
	C1141.795532,633.840637 1147.597534,634.010376 1153.285889,634.010376 
	C1155.560547,624.559814 1151.057373,619.068481 1141.720947,618.877258 
	C1135.488892,618.749573 1129.679443,618.939697 1126.468506,625.571350 
	C1126.133179,626.263855 1124.916138,626.913757 1124.097534,626.927246 
	C1117.492676,627.036560 1110.885132,626.988525 1103.741699,626.988525 
	C1106.340942,614.463562 1113.050171,606.252136 1124.690186,603.003723 
	C1136.399536,599.735962 1148.243286,599.475708 1160.007080,604.950928 
M1126.661865,649.947998 
	C1123.588135,652.060730 1121.744385,655.300110 1123.344360,658.499512 
	C1124.655396,661.120789 1127.533203,663.744446 1130.292847,664.696289 
	C1136.579590,666.864258 1142.846069,665.474121 1148.281616,661.627319 
	C1152.694946,658.503967 1154.999512,654.128845 1154.921143,647.326904 
	C1145.361450,648.083252 1136.344971,648.796631 1126.661865,649.947998 
z"/>
<path fill="#6794FB" opacity="1.000000" stroke="none" 
	d="
M1370.924805,451.888855 
	C1380.553711,451.889252 1380.392334,451.956085 1383.858887,460.328308 
	C1388.419067,471.341309 1393.224365,482.253845 1398.046021,493.155670 
	C1398.556641,494.310120 1399.884277,495.103210 1400.832764,496.063904 
	C1401.562866,495.053925 1402.575073,494.145416 1402.980347,493.018585 
	C1407.855103,479.469360 1412.639893,465.887756 1417.510254,452.139557 
	C1425.605225,452.139557 1433.553833,452.139557 1442.165405,452.139557 
	C1438.079712,462.423248 1434.120361,472.364227 1430.179688,482.312653 
	C1422.690796,501.218811 1415.278198,520.155518 1407.705688,539.028076 
	C1403.095581,550.518372 1395.589600,559.516541 1378.999512,558.954956 
	C1374.868896,558.815125 1370.729492,558.934082 1366.196411,558.934082 
	C1366.196411,552.484436 1366.196411,546.443176 1366.196411,539.974121 
	C1369.528809,539.726196 1372.794556,539.411194 1376.067871,539.253052 
	C1386.482910,538.749695 1391.559448,530.374268 1387.147339,521.041321 
	C1377.765869,501.196930 1368.416016,481.337433 1359.117798,461.453827 
	C1357.813477,458.664368 1356.874634,455.703949 1355.407593,451.888916 
	C1360.964722,451.888916 1365.701660,451.888916 1370.924805,451.888855 
z"/>
<path fill="#6693FB" opacity="1.000000" stroke="none" 
	d="
M1162.888916,503.014282 
	C1162.888916,486.220337 1162.888916,469.426422 1162.888916,452.264313 
	C1170.219604,452.264313 1177.270752,452.264313 1184.990234,452.264313 
	C1184.990234,457.676178 1184.920288,462.949921 1185.005249,468.221161 
	C1185.171509,478.530457 1184.942749,488.878174 1185.792358,499.134247 
	C1186.479492,507.431549 1191.516846,511.715729 1198.910889,512.090515 
	C1205.916382,512.445557 1213.503906,507.551453 1215.006836,500.697784 
	C1216.293701,494.829651 1216.742554,488.709839 1216.922729,482.682251 
	C1217.220459,472.715179 1217.003540,462.732788 1217.003540,452.327179 
	C1224.379395,452.327179 1231.422485,452.327179 1238.883179,452.327179 
	C1238.883179,477.688873 1238.883179,503.055237 1238.883179,529.147278 
	C1234.072998,529.147278 1229.229492,529.639771 1224.582520,528.899109 
	C1222.782959,528.612366 1221.428345,525.533752 1219.249634,523.006104 
	C1218.996704,523.112305 1217.482178,523.377380 1216.466064,524.233948 
	C1209.104736,530.439087 1200.448730,532.261292 1191.138794,531.998718 
	C1177.330688,531.609314 1164.599243,519.661865 1163.357178,505.231506 
	C1163.301270,504.106171 1163.095093,503.560242 1162.888916,503.014282 
z"/>
<path fill="#6895FB" opacity="1.000000" stroke="none" 
	d="
M1322.104980,641.819946 
	C1335.030762,651.608582 1332.822632,673.691406 1313.825562,679.835388 
	C1299.820312,684.364807 1286.055786,684.383789 1273.105713,676.758667 
	C1265.381592,672.210693 1261.250000,665.114685 1261.241699,655.185974 
	C1267.900757,655.185974 1274.501587,655.011292 1281.075684,655.353088 
	C1282.209106,655.411926 1283.563599,657.504822 1284.244019,658.931030 
	C1287.708496,666.192139 1300.635498,668.209778 1306.000854,662.221313 
	C1308.681641,659.229309 1308.554199,655.465942 1304.813232,653.552795 
	C1300.683594,651.440796 1295.950806,650.528687 1291.521973,648.975952 
	C1284.913086,646.658752 1278.020630,644.865234 1271.830322,641.708618 
	C1263.459229,637.439758 1260.933105,629.435425 1262.159302,620.617371 
	C1263.276489,612.584351 1267.905884,606.891541 1275.822388,604.013489 
	C1288.716553,599.325806 1301.531006,599.149475 1314.325073,604.198303 
	C1322.799316,607.542358 1328.639404,616.412476 1328.517212,626.099548 
	C1322.248169,626.099548 1315.954956,626.223267 1309.675171,625.986877 
	C1308.526123,625.943665 1307.113770,624.653076 1306.367798,623.564758 
	C1302.933594,618.553833 1292.874878,615.525452 1288.027344,618.648926 
	C1286.277466,619.776489 1284.445923,622.238342 1284.402832,624.131165 
	C1284.362061,625.926880 1286.228638,628.760437 1287.924316,629.419434 
	C1293.588745,631.621216 1299.634521,632.820557 1305.378662,634.845154 
	C1310.959229,636.812012 1316.348145,639.322632 1322.104980,641.819946 
z"/>
<path fill="#6794FB" opacity="1.000000" stroke="none" 
	d="
M1106.488892,435.823181 
	C1106.636230,433.120270 1107.589844,431.616730 1110.772827,431.835754 
	C1115.037231,432.129150 1119.336914,431.908386 1124.142822,431.908386 
	C1124.142822,438.715088 1124.142822,444.963684 1124.142822,451.867432 
	C1131.524536,451.867432 1138.396606,451.867432 1145.827026,451.867432 
	C1145.827026,457.634399 1146.065308,462.765961 1145.645508,467.843109 
	C1145.550537,468.991730 1143.218262,470.768890 1141.829590,470.854340 
	C1136.210815,471.199829 1130.558228,470.997742 1124.898438,470.997742 
	C1124.898438,481.252228 1124.452515,491.187653 1125.072998,501.056030 
	C1125.420776,506.589417 1130.152222,509.787537 1135.903809,509.972351 
	C1139.350220,510.083130 1142.803101,509.992737 1146.791260,509.992737 
	C1146.791260,515.999146 1146.894043,521.451294 1146.700562,526.892883 
	C1146.663940,527.924500 1145.456909,529.788391 1144.780762,529.792480 
	C1134.286621,529.856506 1123.562866,531.530640 1113.890869,525.411560 
	C1106.303101,520.611145 1102.324585,513.778259 1102.156860,504.932129 
	C1101.942505,493.625092 1102.104858,482.310913 1102.104858,470.271667 
	C1096.660156,470.271667 1091.621826,470.271667 1086.306396,470.271667 
	C1086.306396,463.960754 1086.306396,458.375397 1086.306396,452.187653 
	C1095.481201,452.125183 1105.821899,453.067139 1105.414795,438.447327 
	C1105.982666,437.224121 1106.235718,436.523651 1106.488892,435.823181 
z"/>
<path fill="#6794FB" opacity="1.000000" stroke="none" 
	d="
M1191.269043,620.923523 
	C1190.325317,615.142273 1189.847534,609.455566 1189.319214,603.168884 
	C1191.653198,603.036255 1193.238770,602.889526 1194.826294,602.865295 
	C1204.376831,602.719421 1207.234863,600.098267 1208.000732,590.729492 
	C1208.646240,582.833435 1208.646240,582.819458 1216.597534,582.837891 
	C1219.592163,582.844849 1222.586792,582.921936 1225.580566,583.002014 
	C1225.873047,583.009827 1226.158813,583.264160 1226.993164,583.668091 
	C1226.993164,589.646423 1226.993164,595.895081 1226.993164,602.778198 
	C1234.250977,602.778198 1240.980225,602.778198 1248.711670,602.778198 
	C1248.711670,608.182434 1248.659790,612.955200 1248.732178,617.726135 
	C1248.772583,620.385803 1247.449097,621.136292 1245.002075,621.094910 
	C1239.224976,620.997070 1233.445312,621.063538 1227.421631,621.063538 
	C1227.421631,631.455383 1226.989624,641.251160 1227.572021,650.986267 
	C1227.966675,657.582886 1232.589722,660.834167 1239.535767,660.993164 
	C1249.722534,661.226440 1249.756104,661.226562 1249.713501,671.414856 
	C1249.666016,682.772949 1250.747925,680.811584 1240.213013,681.009460 
	C1231.728638,681.168762 1223.320068,681.097473 1215.938477,675.904358 
	C1209.467407,671.351929 1205.400757,665.256226 1205.177734,657.337646 
	C1204.845459,645.541748 1205.091553,633.729431 1205.091553,621.018066 
	C1200.225586,621.018066 1195.980225,621.018066 1191.269043,620.923523 
z"/>
<path fill="#5D90FE" opacity="1.000000" stroke="none" 
	d="
M714.446045,723.993164 
	C714.348022,721.450073 714.250000,718.906921 714.255981,715.912720 
	C731.126770,722.794067 747.914734,730.078308 764.655640,737.468994 
	C797.843872,752.120667 831.014282,766.812683 864.174255,781.528198 
	C874.060364,785.915527 883.889099,790.432251 893.739319,794.900146 
	C896.374634,796.095459 899.436646,797.263916 897.446716,801.030579 
	C895.589233,804.546570 892.919067,802.557373 890.554016,801.507996 
	C833.049683,775.991821 775.550598,750.463806 717.400452,724.634644 
	C715.982239,724.218628 715.214172,724.105896 714.446045,723.993164 
z"/>
<path fill="#5D90FE" opacity="1.000000" stroke="none" 
	d="
M715.152039,739.775024 
	C715.068359,737.386475 714.984680,734.997864 714.982178,732.153564 
	C730.899841,738.587952 746.771057,745.399048 762.565674,752.383545 
	C802.379700,769.989746 842.170349,787.649231 881.930603,805.376404 
	C884.977173,806.734741 889.774231,807.451050 886.817749,813.302490 
	C886.738770,813.676575 886.765076,813.736511 886.373291,813.777222 
	C882.546265,812.818848 878.942078,812.200806 875.701416,810.763184 
	C831.330322,791.078552 787.019592,771.257996 742.667053,751.531433 
	C734.333313,747.824768 725.881775,744.383057 717.261658,740.572510 
	C716.409851,740.142273 715.780945,739.958679 715.152039,739.775024 
z"/>
<path fill="#FEFEFF" opacity="1.000000" stroke="none" 
	d="
M675.706482,609.988770 
	C675.296997,520.975403 675.258057,431.943573 675.315796,342.451111 
	C679.064392,342.067780 677.952637,344.859283 677.961548,346.761444 
	C678.031189,361.581299 678.000000,376.401672 678.000000,391.221863 
	C678.000000,416.532776 677.887329,441.844269 678.024719,467.154449 
	C678.270264,512.405212 678.711060,557.654968 678.873352,602.905884 
	C678.881775,605.257324 677.051392,607.615295 675.706482,609.988770 
z"/>
<path fill="#FEFEFF" opacity="1.000000" stroke="none" 
	d="
M701.486572,361.085236 
	C702.189636,375.379089 702.531555,389.751343 702.796509,404.563507 
	C701.820923,404.297089 700.164734,403.619812 700.136353,402.880035 
	C699.650208,390.214996 699.305481,377.543030 699.131348,364.869812 
	C699.114502,363.643768 700.428894,362.399445 701.486572,361.085236 
z"/>
<path fill="#FEFEFF" opacity="1.000000" stroke="none" 
	d="
M921.491455,600.937500 
	C920.778809,591.283020 920.448364,581.569031 920.188477,571.425903 
	C921.142700,571.537231 922.764099,572.034180 922.798950,572.624634 
	C923.304504,581.198059 923.656250,589.782654 923.847046,598.368958 
	C923.865295,599.190308 922.562866,600.040894 921.491455,600.937500 
z"/>
<path fill="#FEFEFF" opacity="1.000000" stroke="none" 
	d="
M702.610596,441.071716 
	C703.276672,447.369537 703.571472,453.738129 703.785767,460.555664 
	C702.806702,460.487213 701.262878,460.113831 701.110168,459.429962 
	C699.732178,453.256500 698.421143,447.016846 702.610596,441.071716 
z"/>
<path fill="#FEFEFF" opacity="1.000000" stroke="none" 
	d="
M920.386475,547.931885 
	C919.719360,543.619324 919.424744,539.239319 919.207764,534.427490 
	C923.882263,536.005066 924.631592,543.058044 920.386475,547.931885 
z"/>
<path fill="#FEFEFF" opacity="1.000000" stroke="none" 
	d="
M703.621033,500.067139 
	C704.247559,504.064178 704.500916,508.128174 704.695923,512.599487 
	C700.089233,511.075592 699.419495,504.871887 703.621033,500.067139 
z"/>
<path fill="#FEFEFF" opacity="1.000000" stroke="none" 
	d="
M938.763794,409.925293 
	C939.100647,412.682495 939.437439,415.439728 939.691895,418.602966 
	C935.776245,417.176819 934.863098,413.018524 937.612793,408.085205 
	C937.996765,408.002594 937.998718,407.935120 937.995789,408.218842 
	C938.249817,408.976807 938.506775,409.451050 938.763794,409.925293 
z"/>
<path fill="#FEFEFF" opacity="1.000000" stroke="none" 
	d="
M705.047119,550.993042 
	C705.055115,555.020386 705.063171,559.047668 705.051758,563.538147 
	C701.117493,562.474976 701.828247,559.314941 702.435791,556.311890 
	C702.751465,554.751953 703.461975,553.271851 704.262939,551.370239 
	C704.703552,550.987610 704.875305,550.990295 705.047119,550.993042 
z"/>
<path fill="#FEFEFF" opacity="1.000000" stroke="none" 
	d="
M905.993408,369.566376 
	C902.462402,368.513885 898.924438,367.080444 895.163574,365.381287 
	C899.169861,364.986755 903.772705,363.843994 905.993408,369.566376 
z"/>
<path fill="#FEFEFF" opacity="1.000000" stroke="none" 
	d="
M756.926758,307.764343 
	C753.509033,306.848907 750.072571,305.553284 746.320435,304.082581 
	C746.321838,303.381134 746.870361,302.372162 746.922729,302.397339 
	C750.276794,304.006104 753.590576,305.698914 756.926758,307.764343 
z"/>
<path fill="#E1EAFE" opacity="1.000000" stroke="none" 
	d="
M703.679565,484.303131 
	C704.178101,488.135834 704.393250,492.264526 704.338745,496.699280 
	C703.844727,492.869934 703.620483,488.734497 703.679565,484.303131 
z"/>
<path fill="#FEFEFF" opacity="1.000000" stroke="none" 
	d="
M714.991211,290.583801 
	C711.715332,289.538574 708.430603,288.117401 704.906860,286.423340 
	C708.694702,286.006317 712.812195,285.631897 714.991211,290.583801 
z"/>
<path fill="#E1EAFE" opacity="1.000000" stroke="none" 
	d="
M705.320312,550.693359 
	C704.875305,550.990295 704.703552,550.987610 704.274414,550.975342 
	C704.140747,547.177979 704.264404,543.390137 704.669067,539.306030 
	C705.164490,542.804443 705.378967,546.599060 705.320312,550.693359 
z"/>
<path fill="#FEFEFF" opacity="1.000000" stroke="none" 
	d="
M946.736816,611.037048 
	C947.330200,613.074768 947.548035,615.151672 947.680969,617.619141 
	C943.248657,616.178833 942.874573,614.078186 946.736816,611.037048 
z"/>
<path fill="#FEFEFF" opacity="1.000000" stroke="none" 
	d="
M772.958618,314.606903 
	C770.127563,313.852020 767.256042,312.741638 764.168823,311.360291 
	C768.004028,309.130981 770.841431,310.612915 772.958618,314.606903 
z"/>
<path fill="#FEFEFF" opacity="1.000000" stroke="none" 
	d="
M919.379944,508.951721 
	C918.968323,506.638672 918.932129,504.277344 918.898682,501.475281 
	C922.972351,503.034546 923.247253,505.567780 919.379944,508.951721 
z"/>
<path fill="#FEFEFF" opacity="1.000000" stroke="none" 
	d="
M889.926147,362.767639 
	C887.184204,362.163300 884.424133,361.179169 881.335083,360.040405 
	C883.038818,357.934906 887.148987,359.090149 889.926147,362.767639 
z"/>
<path fill="#FEFEFF" opacity="1.000000" stroke="none" 
	d="
M738.039185,614.358459 
	C741.200684,615.464050 744.401306,616.923523 747.817383,618.658020 
	C743.745728,619.811462 740.604858,617.986450 738.039185,614.358459 
z"/>
<path fill="#FEFEFF" opacity="1.000000" stroke="none" 
	d="
M917.955566,475.006744 
	C917.946594,472.304138 917.937683,469.601562 917.947510,466.448792 
	C923.479675,468.083710 919.737854,471.395905 918.768921,474.657837 
	C918.299072,475.012085 918.127319,475.009399 917.955566,475.006744 
z"/>
<path fill="#FEFEFF" opacity="1.000000" stroke="none" 
	d="
M898.038452,686.360107 
	C900.532166,687.131409 903.064331,688.259216 905.814575,689.660889 
	C902.339966,691.435059 899.809814,690.061279 898.038452,686.360107 
z"/>
<path fill="#FEFEFF" opacity="1.000000" stroke="none" 
	d="
M820.960083,685.626465 
	C818.438232,684.933105 815.876526,683.887146 813.072632,682.606445 
	C816.821045,679.732361 818.722656,682.915649 820.960083,685.626465 
z"/>
<path fill="#FEFEFF" opacity="1.000000" stroke="none" 
	d="
M809.038208,646.345581 
	C811.533508,647.122314 814.066956,648.252930 816.816772,649.658691 
	C813.272217,651.583069 811.030212,649.495605 809.038208,646.345581 
z"/>
<path fill="#FEFEFF" opacity="1.000000" stroke="none" 
	d="
M830.943970,338.610535 
	C828.550964,338.030426 826.103760,337.110504 823.331299,336.038513 
	C823.944214,335.427063 825.206421,334.337891 825.761475,334.623383 
	C827.607788,335.573029 829.200134,337.016510 830.943970,338.610535 
z"/>
<path fill="#FEFEFF" opacity="1.000000" stroke="none" 
	d="
M847.991089,345.587677 
	C845.822937,345.133423 843.645935,344.303192 841.247681,343.209778 
	C844.112732,341.344391 846.638489,341.463348 847.991089,345.587677 
z"/>
<path fill="#FEFEFF" opacity="1.000000" stroke="none" 
	d="
M758.039307,623.357788 
	C760.690796,624.395691 763.381592,625.788879 766.225830,627.509521 
	C763.612305,626.462280 760.845459,625.087646 758.039307,623.357788 
z"/>
<path fill="#FEFEFF" opacity="1.000000" stroke="none" 
	d="
M940.339905,436.932007 
	C940.462830,438.346558 940.585754,439.761078 940.612610,441.594727 
	C936.516296,441.320435 936.497742,439.316467 939.062988,436.352356 
	C939.713562,436.398468 940.026733,436.665222 940.339905,436.932007 
z"/>
<path fill="#FEFEFF" opacity="1.000000" stroke="none" 
	d="
M810.806580,330.032288 
	C808.797302,329.687012 806.720093,328.972351 804.324280,328.080383 
	C807.460999,323.856171 808.785828,327.960999 810.806580,330.032288 
z"/>
<path fill="#FEFEFF" opacity="1.000000" stroke="none" 
	d="
M873.994385,709.490295 
	C872.189392,708.995605 870.377380,708.136536 868.284668,707.083435 
	C870.559204,704.404175 872.104614,704.981812 873.994385,709.490295 
z"/>
<path fill="#E1EAFE" opacity="1.000000" stroke="none" 
	d="
M919.314941,519.718506 
	C918.833252,517.515015 918.624084,515.037292 918.676208,512.277466 
	C919.154175,514.478333 919.370850,516.961365 919.314941,519.718506 
z"/>
<path fill="#E1EAFE" opacity="1.000000" stroke="none" 
	d="
M917.690369,475.285156 
	C918.127319,475.009399 918.299072,475.012085 918.728027,475.024109 
	C918.858154,477.496796 918.730957,479.960114 918.328979,482.706360 
	C917.844482,480.514069 917.634827,478.038788 917.690369,475.285156 
z"/>
<path fill="#FEFEFF" opacity="1.000000" stroke="none" 
	d="
M919.035767,696.337769 
	C920.430664,696.003601 921.865479,696.025574 923.646851,696.013428 
	C922.868347,699.755737 921.265808,700.246399 919.035767,696.337769 
z"/>
<path fill="#FEFEFF" opacity="1.000000" stroke="none" 
	d="
M837.992676,693.507935 
	C836.185913,693.016296 834.370605,692.168884 832.279053,691.123474 
	C834.338867,688.957397 835.699951,689.464111 837.992676,693.507935 
z"/>
<path fill="#FEFEFF" opacity="1.000000" stroke="none" 
	d="
M829.037842,655.348511 
	C830.869080,655.793396 832.738220,656.595459 834.819458,657.667664 
	C831.891235,660.275879 830.355591,658.331970 829.037842,655.348511 
z"/>
<path fill="#FEFEFF" opacity="1.000000" stroke="none" 
	d="
M916.982666,439.003082 
	C916.975159,436.960144 916.967590,434.917236 916.985352,432.437225 
	C922.516296,433.247009 918.703125,436.048828 917.774292,438.668152 
	C917.316345,439.011383 917.149475,439.007233 916.982666,439.003082 
z"/>
<path fill="#E1EAFE" opacity="1.000000" stroke="none" 
	d="
M967.298340,644.737671 
	C966.796570,642.900208 966.566406,640.808044 966.486938,638.320862 
	C966.948425,640.111511 967.259277,642.297302 967.298340,644.737671 
z"/>
<path fill="#FEFEFF" opacity="1.000000" stroke="none" 
	d="
M731.992188,297.595520 
	C730.533813,297.396820 729.067688,296.831848 727.302856,296.098816 
	C729.159607,293.415222 730.158875,293.675751 731.992188,297.595520 
z"/>
<path fill="#FEFEFF" opacity="1.000000" stroke="none" 
	d="
M890.962402,716.630981 
	C889.527954,716.407227 888.055847,715.833618 886.293823,715.069031 
	C888.133057,712.366943 888.496521,712.470581 890.962402,716.630981 
z"/>
<path fill="#FEFEFF" opacity="1.000000" stroke="none" 
	d="
M916.409424,402.956726 
	C916.037170,401.609955 916.012817,400.221252 916.019714,398.416809 
	C919.740601,399.142456 920.210327,400.746704 916.409424,402.956726 
z"/>
<path fill="#FEFEFF" opacity="1.000000" stroke="none" 
	d="
M948.323975,635.926819 
	C948.429016,637.024536 948.534058,638.122253 948.515259,639.619873 
	C944.910645,639.660950 945.952393,637.593872 947.063416,635.379150 
	C947.704712,635.397217 948.014343,635.661987 948.323975,635.926819 
z"/>
<path fill="#FEFEFF" opacity="1.000000" stroke="none" 
	d="
M789.961731,321.628326 
	C788.533264,321.403168 787.067200,320.835052 785.302307,320.098938 
	C786.755005,317.716187 787.615356,317.953003 789.961731,321.628326 
z"/>
<path fill="#E1EAFE" opacity="1.000000" stroke="none" 
	d="
M968.255493,668.764038 
	C967.772156,667.229614 967.558960,665.455444 967.494934,663.303101 
	C967.937927,664.791382 968.231750,666.657837 968.255493,668.764038 
z"/>
<path fill="#FEFEFF" opacity="1.000000" stroke="none" 
	d="
M923.440796,671.958130 
	C923.080688,670.609802 923.052002,669.221680 923.061523,667.418457 
	C925.602722,668.329956 927.558472,669.731262 923.440796,671.958130 
z"/>
<path fill="#E1EAFE" opacity="1.000000" stroke="none" 
	d="
M959.282288,446.755981 
	C958.798279,445.223450 958.582092,443.451080 958.521362,441.301880 
	C958.968018,442.788788 959.259033,444.652496 959.282288,446.755981 
z"/>
<path fill="#E1EAFE" opacity="1.000000" stroke="none" 
	d="
M966.288940,619.764648 
	C965.781250,618.260986 965.535400,616.529663 965.316223,614.403931 
	C965.745544,615.851990 966.148193,617.694458 966.288940,619.764648 
z"/>
<path fill="#FEFEFF" opacity="1.000000" stroke="none" 
	d="
M848.134521,664.282288 
	C849.303040,664.428223 850.609497,664.864563 851.982422,665.608643 
	C850.790100,665.468445 849.531189,665.020569 848.134521,664.282288 
z"/>
<path fill="#E1EAFE" opacity="1.000000" stroke="none" 
	d="
M948.480713,635.564636 
	C948.014343,635.661987 947.704712,635.397217 947.204346,635.052368 
	C947.153748,633.482300 947.294006,631.992249 947.709717,630.253418 
	C948.202576,631.737244 948.420044,633.469849 948.480713,635.564636 
z"/>
<path fill="#E1EAFE" opacity="1.000000" stroke="none" 
	d="
M940.492554,436.568176 
	C940.026733,436.665222 939.713562,436.398468 939.208252,436.049988 
	C939.158081,434.479004 939.299988,432.989716 939.717285,431.251343 
	C940.210144,432.736298 940.427673,434.470306 940.492554,436.568176 
z"/>
<path fill="#FEFEFF" opacity="1.000000" stroke="none" 
	d="
M699.722229,308.035187 
	C700.367188,309.079132 700.668030,310.175171 700.929199,311.634521 
	C697.722595,310.834442 697.494202,310.243439 699.722229,308.035187 
z"/>
<path fill="#FEFEFF" opacity="1.000000" stroke="none" 
	d="
M854.943054,700.545959 
	C853.522217,700.345398 852.046021,699.821228 850.286804,699.096130 
	C852.694275,695.427063 853.361877,699.403931 854.943054,700.545959 
z"/>
<path fill="#FEFEFF" opacity="1.000000" stroke="none" 
	d="
M717.071533,605.290161 
	C718.986145,605.709351 720.947205,606.491882 723.010864,607.614624 
	C721.114929,607.187744 719.116394,606.420654 717.071533,605.290161 
z"/>
<path fill="#FEFEFF" opacity="1.000000" stroke="none" 
	d="
M866.962646,353.601501 
	C865.785583,353.498657 864.572144,353.061249 863.164307,352.367004 
	C864.489014,349.674866 864.826721,349.773621 866.962646,353.601501 
z"/>
<path fill="#E1EAFE" opacity="1.000000" stroke="none" 
	d="
M958.283936,421.758728 
	C957.830505,420.504120 957.646790,419.012360 957.641785,417.238098 
	C958.064880,418.477600 958.309265,419.999603 958.283936,421.758728 
z"/>
<path fill="#FEFEFF" opacity="1.000000" stroke="none" 
	d="
M883.074341,680.283325 
	C884.566406,680.420715 886.092285,680.906250 887.825806,681.662476 
	C886.391724,681.499207 884.749878,681.065308 883.074341,680.283325 
z"/>
<path fill="#E1EAFE" opacity="1.000000" stroke="none" 
	d="
M960.236694,470.788239 
	C959.774353,469.550201 959.575317,468.093170 959.532837,466.280151 
	C959.959595,467.472534 960.229797,469.020905 960.236694,470.788239 
z"/>
<path fill="#FEFEFF" opacity="1.000000" stroke="none" 
	d="
M683.892761,624.904053 
	C682.378235,624.767273 680.854065,624.263306 679.113953,623.493042 
	C681.259277,621.001709 682.660645,622.428955 683.892761,624.904053 
z"/>
<path fill="#FEFEFF" opacity="1.000000" stroke="none" 
	d="
M779.039185,633.306030 
	C780.226257,633.453857 781.458069,633.931641 782.868286,634.657593 
	C781.725708,634.482483 780.404846,634.059204 779.039185,633.306030 
z"/>
<path fill="#FEFEFF" opacity="1.000000" stroke="none" 
	d="
M872.928101,355.788391 
	C871.845459,355.826416 870.740356,355.519501 869.319824,355.062256 
	C870.768616,351.684753 871.770264,354.054657 872.928101,355.788391 
z"/>
<path fill="#FEFEFF" opacity="1.000000" stroke="none" 
	d="
M805.877686,678.984619 
	C804.360596,678.831604 802.843994,678.309265 801.103027,677.530762 
	C802.545166,677.721436 804.211731,678.168335 805.877686,678.984619 
z"/>
<path fill="#FEFEFF" opacity="1.000000" stroke="none" 
	d="
M924.948486,731.592651 
	C923.529175,731.313477 922.058350,730.650208 920.455811,729.659546 
	C921.848328,729.957581 923.372681,730.583008 924.948486,731.592651 
z"/>
<path fill="#E1EAFE" opacity="1.000000" stroke="none" 
	d="
M940.715942,456.233948 
	C941.163025,457.178802 941.341187,458.353394 941.052368,459.767456 
	C940.396423,459.995056 940.207520,459.983215 940.018555,459.971344 
	C940.161316,458.802124 940.304138,457.632874 940.715942,456.233948 
z"/>
<path fill="#FEFEFF" opacity="1.000000" stroke="none" 
	d="
M922.446655,637.928345 
	C922.085510,636.930054 922.057434,635.865356 922.069519,634.402832 
	C924.699707,634.879517 924.554016,636.229248 922.446655,637.928345 
z"/>
<path fill="#E1EAFE" opacity="1.000000" stroke="none" 
	d="
M948.709106,655.237671 
	C949.151611,656.179382 949.326477,657.352051 949.043213,658.765076 
	C948.401611,658.995789 948.218140,658.986145 948.034668,658.976562 
	C948.170227,657.807251 948.305847,656.637878 948.709106,655.237671 
z"/>
<path fill="#FEFEFF" opacity="1.000000" stroke="none" 
	d="
M726.069580,609.373657 
	C727.310730,609.421021 728.621521,609.833862 730.061890,610.583008 
	C728.840698,610.525940 727.489929,610.132568 726.069580,609.373657 
z"/>
<path fill="#E1EAFE" opacity="1.000000" stroke="none" 
	d="
M916.736206,439.222717 
	C917.149475,439.007233 917.316345,439.011383 917.733032,439.025330 
	C917.842224,440.197083 917.701538,441.359070 917.300354,442.756470 
	C916.856506,441.808716 916.673157,440.625549 916.736206,439.222717 
z"/>
<path fill="#FEFEFF" opacity="1.000000" stroke="none" 
	d="
M698.966431,631.634644 
	C698.188416,631.718872 697.376831,631.479370 696.284424,631.064026 
	C696.427124,630.379333 696.850769,629.870544 697.274353,629.361694 
	C697.827148,630.011414 698.380005,630.661194 698.966431,631.634644 
z"/>
<path fill="#FEFEFF" opacity="1.000000" stroke="none" 
	d="
M939.883545,460.280975 
	C940.207520,459.983215 940.396423,459.995056 940.869019,460.021545 
	C941.114624,461.098297 941.076416,462.160461 940.931946,463.610413 
	C940.466675,462.862335 940.107605,461.726471 939.883545,460.280975 
z"/>
<path fill="#FEFEFF" opacity="1.000000" stroke="none" 
	d="
M769.872681,663.030762 
	C769.010986,663.188171 768.156311,662.975769 767.093994,662.506470 
	C767.884155,662.386658 768.881897,662.523804 769.872681,663.030762 
z"/>
<path fill="#FEFEFF" opacity="1.000000" stroke="none" 
	d="
M951.469971,741.005249 
	C950.997314,741.616272 950.168274,742.234558 949.088257,742.612915 
	C949.596130,741.919495 950.354858,741.466003 951.469971,741.005249 
z"/>
<path fill="#FEFEFF" opacity="1.000000" stroke="none" 
	d="
M880.054565,678.345581 
	C880.972046,678.427307 881.944031,678.857483 882.989563,679.621643 
	C882.078430,679.535095 881.093811,679.114563 880.054565,678.345581 
z"/>
<path fill="#FEFEFF" opacity="1.000000" stroke="none" 
	d="
M776.097961,294.133240 
	C776.959351,293.898895 777.836731,294.025299 778.939087,294.397308 
	C778.147339,294.593262 777.130676,294.543610 776.097961,294.133240 
z"/>
<path fill="#FEFEFF" opacity="1.000000" stroke="none" 
	d="
M947.771240,659.180664 
	C948.218140,658.986145 948.401611,658.995789 948.860596,659.018921 
	C949.173767,659.777283 949.211426,660.522278 949.181824,661.634888 
	C948.578979,661.129944 948.043457,660.257385 947.771240,659.180664 
z"/>
<path fill="#E1EAFE" opacity="1.000000" stroke="none" 
	d="
M1029.821533,423.748962 
	C1029.179565,424.219940 1028.361816,424.452057 1027.229736,424.553955 
	C1027.825562,424.119202 1028.735718,423.814697 1029.821533,423.748962 
z"/>
<path fill="#F7FAFF" opacity="1.000000" stroke="none" 
	d="
M888.866211,814.858948 
	C888.593567,815.781250 888.118347,816.404785 887.341309,816.720215 
	C886.948059,815.520203 886.856567,814.628357 886.765137,813.736511 
	C886.765076,813.736511 886.738770,813.676575 886.727905,813.644531 
	C887.365906,813.928467 888.014709,814.244324 888.866211,814.858948 
z"/>
<path fill="#FEFEFF" opacity="1.000000" stroke="none" 
	d="
M913.925049,372.705811 
	C913.013916,372.607910 912.054688,372.138306 910.880371,371.410797 
	C911.735840,371.546600 912.806396,371.940338 913.925049,372.705811 
z"/>
<path fill="#FEFEFF" opacity="1.000000" stroke="none" 
	d="
M722.934814,293.614471 
	C722.031433,293.539917 721.064026,293.105316 719.880859,292.411896 
	C720.733704,292.520172 721.802246,292.887299 722.934814,293.614471 
z"/>
<path fill="#D4E1FD" opacity="1.000000" stroke="none" 
	d="
M1320.091797,455.879761 
	C1320.335083,456.364594 1320.273560,456.900360 1320.212036,457.436096 
	C1319.548340,457.154236 1318.884766,456.872375 1318.068115,456.327209 
	C1318.539062,456.019531 1319.163086,455.975098 1320.091797,455.879761 
z"/>
<path fill="#F7FAFF" opacity="1.000000" stroke="none" 
	d="
M657.979370,657.678772 
	C657.774902,657.113342 657.578735,656.152344 657.672607,655.049805 
	C657.970947,655.699951 657.979309,656.491577 657.979370,657.678772 
z"/>
<path fill="#FEFEFF" opacity="1.000000" stroke="none" 
	d="
M739.917969,300.738678 
	C739.002502,300.633972 738.046204,300.153412 736.877319,299.412994 
	C737.735474,299.556366 738.806335,299.959595 739.917969,300.738678 
z"/>
<path fill="#FEFEFF" opacity="1.000000" stroke="none" 
	d="
M804.068481,644.287720 
	C804.947998,644.413635 805.871216,644.899475 806.961792,645.665405 
	C806.123535,645.512939 805.117859,645.080261 804.068481,644.287720 
z"/>
<path fill="#FEFEFF" opacity="1.000000" stroke="none" 
	d="
M733.046021,612.231079 
	C733.584412,612.098877 734.143066,612.270508 734.867065,612.688110 
	C734.377014,612.801086 733.721619,612.668030 733.046021,612.231079 
z"/>
<path fill="#FEFEFF" opacity="1.000000" stroke="none" 
	d="
M815.038818,310.356781 
	C815.586609,310.143982 816.172241,310.228851 816.916626,310.571106 
	C816.409119,310.770477 815.742920,310.712463 815.038818,310.356781 
z"/>
<path fill="#E1EAFE" opacity="1.000000" stroke="none" 
	d="
M946.789307,606.146545 
	C947.152527,606.556824 947.286499,607.118225 947.256409,607.850830 
	C946.914917,607.447266 946.737427,606.872437 946.789307,606.146545 
z"/>
<path fill="#FEFEFF" opacity="1.000000" stroke="none" 
	d="
M714.973694,638.921631 
	C714.415039,639.087402 713.830872,638.920959 713.062317,638.512695 
	C713.567993,638.377014 714.258118,638.483215 714.973694,638.921631 
z"/>
<path fill="#FEFEFF" opacity="1.000000" stroke="none" 
	d="
M792.057922,638.459473 
	C792.659607,638.545227 793.313660,638.943054 794.047546,639.646240 
	C793.455078,639.558228 792.782654,639.164917 792.057922,638.459473 
z"/>
<path fill="#FEFEFF" opacity="1.000000" stroke="none" 
	d="
M942.962097,739.651733 
	C942.414856,739.860168 941.830261,739.770508 941.086548,739.423706 
	C941.593140,739.228882 942.258972,739.291199 942.962097,739.651733 
z"/>
<path fill="#FEFEFF" opacity="1.000000" stroke="none" 
	d="
M797.038452,641.360840 
	C797.570862,641.169373 798.140076,641.273132 798.896912,641.605103 
	C798.414734,641.774292 797.744995,641.715210 797.038452,641.360840 
z"/>
<path fill="#FEFEFF" opacity="1.000000" stroke="none" 
	d="
M727.922913,644.593262 
	C727.197083,644.622986 726.395691,644.287537 725.462158,643.635498 
	C726.169128,643.622070 727.008240,643.925110 727.922913,644.593262 
z"/>
<path fill="#FEFEFF" opacity="1.000000" stroke="none" 
	d="
M868.034058,673.305725 
	C868.570129,673.127441 869.140320,673.250244 869.896118,673.606323 
	C869.410645,673.762024 868.739380,673.684387 868.034058,673.305725 
z"/>
<path fill="#FEFEFF" opacity="1.000000" stroke="none" 
	d="
M737.901733,648.942261 
	C737.341492,649.106445 736.782593,648.938232 736.040405,648.542175 
	C736.539001,648.412842 737.221069,648.511353 737.901733,648.942261 
z"/>
<path fill="#C6D6F8" opacity="1.000000" stroke="none" 
	d="
M1162.682861,503.180786 
	C1163.095093,503.560242 1163.301270,504.106171 1163.334839,504.830536 
	C1162.933838,504.455048 1162.705444,503.901154 1162.682861,503.180786 
z"/>
<path fill="#E1EAFE" opacity="1.000000" stroke="none" 
	d="
M1041.990234,424.080780 
	C1041.532104,424.332306 1040.975708,424.365234 1040.212891,424.185242 
	C1040.635010,423.935577 1041.263428,423.898865 1041.990234,424.080780 
z"/>
<path fill="#FEFEFF" opacity="1.000000" stroke="none" 
	d="
M753.888550,655.994019 
	C753.325989,656.162170 752.770813,655.989258 752.021057,655.599976 
	C752.516296,655.473389 753.206055,655.563171 753.888550,655.994019 
z"/>
<path fill="#CADBFF" opacity="1.000000" stroke="none" 
	d="
M1106.201904,435.925049 
	C1106.235718,436.523651 1105.982666,437.224121 1105.422119,438.030212 
	C1105.381592,437.432892 1105.648315,436.729919 1106.201904,435.925049 
z"/>
<path fill="#FEFEFF" opacity="1.000000" stroke="none" 
	d="
M784.906372,669.925842 
	C784.346497,670.087585 783.785889,669.920044 783.047974,669.518799 
	C783.548889,669.388855 784.227295,669.492737 784.906372,669.925842 
z"/>
<path fill="#FEFEFF" opacity="1.000000" stroke="none" 
	d="
M861.060364,669.485229 
	C861.658325,669.566956 862.310120,669.956848 863.041016,670.650635 
	C862.451538,670.567505 861.782837,670.180420 861.060364,669.485229 
z"/>
<path fill="#F7FAFF" opacity="1.000000" stroke="none" 
	d="
M714.389832,724.245117 
	C715.214172,724.105896 715.982239,724.218628 717.045166,724.599365 
	C716.725159,724.902588 716.110474,724.937866 715.034485,724.963684 
	C714.493347,724.801819 714.413513,724.649414 714.389832,724.245117 
z"/>
<path fill="#F7FAFF" opacity="1.000000" stroke="none" 
	d="
M651.961060,711.127625 
	C652.344116,713.016357 652.415588,714.807129 652.333862,716.951660 
	C640.452332,711.894287 628.723938,706.483215 616.864258,701.011536 
	C617.678711,697.116394 619.439575,696.600891 622.571533,698.036926 
	C632.221252,702.461426 641.950867,706.711670 651.961060,711.127625 
z"/>
<path fill="#F7FAFF" opacity="1.000000" stroke="none" 
	d="
M652.075073,695.243591 
	C652.497620,697.615845 652.583008,699.909241 652.588379,702.646240 
	C643.388306,699.252502 634.268250,695.415100 624.979309,691.506653 
	C627.349243,686.437561 630.120117,684.961304 634.968262,687.542053 
	C640.377747,690.421753 646.132996,692.651855 652.075073,695.243591 
z"/>
<path fill="#F7FAFF" opacity="1.000000" stroke="none" 
	d="
M652.623352,679.828552 
	C652.866638,682.093384 652.823303,684.164673 652.709717,686.689697 
	C646.999146,684.854614 641.358826,682.565735 635.488464,680.183472 
	C637.713013,675.518860 640.105103,673.491577 644.636108,676.159241 
	C647.048828,677.579651 649.760193,678.492798 652.623352,679.828552 
z"/>
<path fill="#E1EAFE" opacity="1.000000" stroke="none" 
	d="
M939.010132,409.816223 
	C938.506775,409.451050 938.249817,408.976807 938.029053,408.212891 
	C938.462341,408.517883 938.859436,409.112549 939.010132,409.816223 
z"/>
<path fill="#A9D9FF" opacity="1.000000" stroke="none" 
	d="
M625.036316,324.770630 
	C630.570862,317.962036 636.075317,311.574402 642.375732,304.263062 
	C642.747620,306.604950 643.047974,307.614014 643.048157,308.623138 
	C643.069641,409.912750 643.085083,511.202423 642.958740,612.491882 
	C642.955994,614.694092 641.778076,617.274048 640.346802,619.021301 
	C636.621094,623.569580 632.448730,627.751953 628.454529,632.080322 
	C627.991699,631.911682 627.528870,631.742981 627.066040,631.574341 
	C627.066040,629.847473 627.068420,628.120544 627.065674,626.393616 
	C627.014343,594.240906 627.056274,562.087646 626.888672,529.935547 
	C626.633484,480.983978 626.277893,432.032806 625.872009,383.082245 
	C625.712036,363.784302 625.302185,344.488403 625.036316,324.770630 
z"/>
<path fill="#FCFDFF" opacity="1.000000" stroke="none" 
	d="
M1050.400513,598.221191 
	C1058.319824,601.499878 1061.697144,607.214844 1060.526855,614.834534 
	C1059.291382,622.879211 1054.322754,627.585022 1046.080444,628.018066 
	C1040.272827,628.323181 1034.440552,628.174072 1028.619385,628.198059 
	C1027.640015,628.202148 1026.660278,628.055420 1025.301025,627.948547 
	C1025.301025,617.807251 1025.301025,607.770264 1025.301025,596.633911 
	C1033.609985,597.125610 1041.814087,597.611145 1050.400513,598.221191 
z"/>
<path fill="#FCFDFF" opacity="1.000000" stroke="none" 
	d="
M1287.110840,472.972595 
	C1299.293213,464.953522 1315.354858,469.838593 1319.819458,482.598969 
	C1323.628418,493.485596 1319.303467,505.346405 1309.679565,510.010040 
	C1300.334229,514.538635 1287.781616,511.512360 1282.321411,503.414368 
	C1276.097290,494.183350 1278.108276,480.594177 1287.110840,472.972595 
z"/>
<path fill="#FFFFFF" opacity="1.000000" stroke="none" 
	d="
M886.373291,813.777222 
	C886.856567,814.628357 886.948059,815.520203 887.076599,816.858276 
	C882.261902,823.986389 882.187805,824.146484 874.803894,820.728210 
	C842.779724,805.902954 810.818359,790.942261 778.802612,776.098633 
	C758.113647,766.506409 737.370239,757.031555 716.238708,747.397095 
	C715.577026,745.440247 715.327881,743.590454 715.530762,741.362183 
	C716.483398,740.928772 716.984009,740.873962 717.484558,740.819092 
	C725.881775,744.383057 734.333313,747.824768 742.667053,751.531433 
	C787.019592,771.257996 831.330322,791.078552 875.701416,810.763184 
	C878.942078,812.200806 882.546265,812.818848 886.373291,813.777222 
z"/>
<path fill="#F7FAFF" opacity="1.000000" stroke="none" 
	d="
M717.261658,740.572510 
	C716.984009,740.873962 716.483398,740.928772 715.606995,740.993774 
	C715.174255,740.802856 715.117371,740.601685 715.106262,740.087769 
	C715.780945,739.958679 716.409851,740.142273 717.261658,740.572510 
z"/>
<path fill="#FCFDFF" opacity="1.000000" stroke="none" 
	d="
M1126.995239,649.729004 
	C1136.344971,648.796631 1145.361450,648.083252 1154.921143,647.326904 
	C1154.999512,654.128845 1152.694946,658.503967 1148.281616,661.627319 
	C1142.846069,665.474121 1136.579590,666.864258 1130.292847,664.696289 
	C1127.533203,663.744446 1124.655396,661.120789 1123.344360,658.499512 
	C1121.744385,655.300110 1123.588135,652.060730 1126.995239,649.729004 
z"/>
</svg>