<?xml version="1.0" encoding="UTF-8"?>
<svg xmlns="http://www.w3.org/2000/svg" xmlns:xlink="http://www.w3.org/1999/xlink" width="24px" height="24px" viewBox="0 0 24 24" version="1.1">
<g id="surface1">
<path style="fill:none;stroke-width:2;stroke-linecap:round;stroke-linejoin:round;stroke:rgb(100%,100%,100%);stroke-opacity:1;stroke-miterlimit:4;" d="M 8.183594 10.703125 L 6 10.703125 C 5.449219 10.703125 5 11.148438 5 11.699219 C 5 13.347656 5 16.675781 5 18.917969 C 5 21.433594 8.886719 22 12 22 C 15.113281 22 19 21.433594 19 18.917969 C 19 16.675781 19 13.347656 19 11.699219 C 19 11.148438 18.550781 10.703125 18 10.703125 L 15.816406 10.703125 M 8.183594 10.703125 C 8.183594 10.703125 8.183594 8.136719 8.183594 6.59375 C 8.183594 4.746094 9.707031 3 12 3 C 14.292969 3 15.816406 4.746094 15.816406 6.59375 C 15.816406 8.136719 15.816406 10.703125 15.816406 10.703125 M 8.183594 10.703125 L 15.816406 10.703125 "/>
<path style=" stroke:none;fill-rule:evenodd;fill:rgb(100%,100%,100%);fill-opacity:1;" d="M 13 16.617188 L 13 18 C 13 18.550781 12.550781 19 12 19 C 11.449219 19 11 18.550781 11 18 L 11 16.617188 C 10.691406 16.34375 10.5 15.945312 10.5 15.5 C 10.5 14.671875 11.171875 14 12 14 C 12.828125 14 13.5 14.671875 13.5 15.5 C 13.5 15.945312 13.308594 16.34375 13 16.617188 Z M 13 16.617188 "/>
</g>
</svg>
